<svg width="512" height="512" version="1.1" xmlns="http://www.w3.org/2000/svg" desc="Created with imagetracer.js version 1.2.6" ><path fill="rgb(0,186,0)" stroke="rgb(0,186,0)" stroke-width="1" opacity="0.6392156862745098" d="M 238.5 0 L 247 0.5 L 238.5 1 L 238.5 0 Z " /><path fill="rgb(0,186,0)" stroke="rgb(0,186,0)" stroke-width="1" opacity="0.6392156862745098" d="M 265.5 0 L 274 0.5 L 265.5 1 L 265.5 0 Z " /><path fill="rgb(0,186,0)" stroke="rgb(0,186,0)" stroke-width="1" opacity="0.6392156862745098" d="M 227.5 1 L 231 1.5 L 227.5 2 L 227.5 1 Z " /><path fill="rgb(0,186,0)" stroke="rgb(0,186,0)" stroke-width="1" opacity="0.6392156862745098" d="M 281.5 1 L 285 1.5 L 281.5 2 L 281.5 1 Z " /><path fill="rgb(0,186,0)" stroke="rgb(0,186,0)" stroke-width="1" opacity="0.6392156862745098" d="M 219.5 2 L 222 2.5 L 219.5 3 L 219.5 2 Z " /><path fill="rgb(0,186,0)" stroke="rgb(0,186,0)" stroke-width="1" opacity="0.6392156862745098" d="M 290.5 2 L 293 2.5 L 290.5 3 L 290.5 2 Z " /><path fill="rgb(0,186,0)" stroke="rgb(0,186,0)" stroke-width="1" opacity="0.6392156862745098" d="M 213.5 3 L 216 3.5 L 213.5 4 L 213.5 3 Z " /><path fill="rgb(0,186,0)" stroke="rgb(0,186,0)" stroke-width="1" opacity="0.6392156862745098" d="M 207.5 4 L 210 4.5 L 207.5 5 L 207.5 4 Z " /><path fill="rgb(0,186,0)" stroke="rgb(0,186,0)" stroke-width="1" opacity="0.6392156862745098" d="M 307.5 5 L 310 5.5 L 307.5 6 L 307.5 5 Z " /><path fill="rgb(0,186,0)" stroke="rgb(0,186,0)" stroke-width="1" opacity="0.6392156862745098" d="M 384.5 34 L 385.5 36 L 384.5 34 Z " /><path fill="rgb(0,186,0)" stroke="rgb(0,186,0)" stroke-width="1" opacity="0.6392156862745098" d="M 122.5 37 L 121.5 39 L 122.5 37 Z " /><path fill="rgb(0,186,0)" stroke="rgb(0,186,0)" stroke-width="1" opacity="0.6392156862745098" d="M 389.5 37 L 390.5 39 L 389.5 37 Z " /><path fill="rgb(0,186,0)" stroke="rgb(0,186,0)" stroke-width="1" opacity="0.6392156862745098" d="M 397.5 42 L 398.5 44 L 397.5 42 Z " /><path fill="rgb(0,186,0)" stroke="rgb(0,186,0)" stroke-width="1" opacity="0.6392156862745098" d="M 400.5 44 L 401.5 46 L 400.5 44 Z " /><path fill="rgb(0,186,0)" stroke="rgb(0,186,0)" stroke-width="1" opacity="0.6392156862745098" d="M 107.5 47 L 106.5 49 L 107.5 47 Z " /><path fill="rgb(0,186,0)" stroke="rgb(0,186,0)" stroke-width="1" opacity="0.6392156862745098" d="M 404.5 47 L 405.5 49 L 404.5 47 Z " /><path fill="rgb(0,186,0)" stroke="rgb(0,186,0)" stroke-width="1" opacity="0.6392156862745098" d="M 407.5 49 L 408.5 51 L 407.5 49 Z " /><path fill="rgb(0,186,0)" stroke="rgb(0,186,0)" stroke-width="1" opacity="0.6392156862745098" d="M 99.5 53 L 98.5 55 L 99.5 53 Z " /><path fill="rgb(0,186,0)" stroke="rgb(0,186,0)" stroke-width="1" opacity="0.6392156862745098" d="M 412.5 53 L 413.5 55 L 412.5 53 Z " /><path fill="rgb(0,186,0)" stroke="rgb(0,186,0)" stroke-width="1" opacity="0.6392156862745098" d="M 95.5 56 L 93.5 59 L 95.5 56 Z " /><path fill="rgb(0,186,0)" stroke="rgb(0,186,0)" stroke-width="1" opacity="0.6392156862745098" d="M 416.5 56 L 418.5 59 L 416.5 56 Z " /><path fill="rgb(0,186,0)" stroke="rgb(0,186,0)" stroke-width="1" opacity="0.6392156862745098" d="M 89.5 61 L 86.5 65 L 89.5 61 Z " /><path fill="rgb(0,186,0)" stroke="rgb(0,186,0)" stroke-width="1" opacity="0.6392156862745098" d="M 422.5 61 L 425.5 65 L 422.5 61 Z " /><path fill="rgb(0,186,0)" stroke="rgb(0,186,0)" stroke-width="1" opacity="0.6392156862745098" d="M 80.5 69 L 69.5 81 L 80.5 69 Z " /><path fill="rgb(0,186,0)" stroke="rgb(0,186,0)" stroke-width="1" opacity="0.6392156862745098" d="M 433.5 71 L 440.5 79 L 433.5 71 Z " /><path fill="rgb(0,186,0)" stroke="rgb(0,186,0)" stroke-width="1" opacity="0.6392156862745098" d="M 64.5 86 L 61.5 90 L 64.5 86 Z " /><path fill="rgb(0,186,0)" stroke="rgb(0,186,0)" stroke-width="1" opacity="0.6392156862745098" d="M 447.5 86 L 450.5 90 L 447.5 86 Z " /><path fill="rgb(0,186,0)" stroke="rgb(0,186,0)" stroke-width="1" opacity="0.6392156862745098" d="M 58.5 93 L 56.5 96 L 58.5 93 Z " /><path fill="rgb(0,186,0)" stroke="rgb(0,186,0)" stroke-width="1" opacity="0.6392156862745098" d="M 453.5 93 L 455.5 96 L 453.5 93 Z " /><path fill="rgb(0,186,0)" stroke="rgb(0,186,0)" stroke-width="1" opacity="0.6392156862745098" d="M 54.5 98 L 53.5 100 L 54.5 98 Z " /><path fill="rgb(0,186,0)" stroke="rgb(0,186,0)" stroke-width="1" opacity="0.6392156862745098" d="M 457.5 98 L 458.5 100 L 457.5 98 Z " /><path fill="rgb(0,186,0)" stroke="rgb(0,186,0)" stroke-width="1" opacity="0.6392156862745098" d="M 48.5 106 L 47.5 108 L 48.5 106 Z " /><path fill="rgb(0,186,0)" stroke="rgb(0,186,0)" stroke-width="1" opacity="0.6392156862745098" d="M 463.5 106 L 464.5 108 L 463.5 106 Z " /><path fill="rgb(0,186,0)" stroke="rgb(0,186,0)" stroke-width="1" opacity="0.6392156862745098" d="M 43.5 113 L 42.5 115 L 43.5 113 Z " /><path fill="rgb(0,186,0)" stroke="rgb(0,186,0)" stroke-width="1" opacity="0.6392156862745098" d="M 468.5 113 L 469.5 115 L 468.5 113 Z " /><path fill="rgb(0,186,0)" stroke="rgb(0,186,0)" stroke-width="1" opacity="0.6392156862745098" d="M 38.5 121 L 37.5 123 L 38.5 121 Z " /><path fill="rgb(0,186,0)" stroke="rgb(0,186,0)" stroke-width="1" opacity="0.6392156862745098" d="M 506.5 202 L 507 204.5 L 506 204.5 L 506.5 202 Z " /><path fill="rgb(0,186,0)" stroke="rgb(0,186,0)" stroke-width="1" opacity="0.6392156862745098" d="M 4.5 207 L 5 209.5 L 4 209.5 L 4.5 207 Z " /><path fill="rgb(0,186,0)" stroke="rgb(0,186,0)" stroke-width="1" opacity="0.6392156862745098" d="M 507.5 207 L 508 209.5 L 507 209.5 L 507.5 207 Z " /><path fill="rgb(0,186,0)" stroke="rgb(0,186,0)" stroke-width="1" opacity="0.6392156862745098" d="M 3.5 213 L 4 215.5 L 3 215.5 L 3.5 213 Z " /><path fill="rgb(0,186,0)" stroke="rgb(0,186,0)" stroke-width="1" opacity="0.6392156862745098" d="M 508.5 213 L 509 215.5 L 508 215.5 L 508.5 213 Z " /><path fill="rgb(0,186,0)" stroke="rgb(0,186,0)" stroke-width="1" opacity="0.6392156862745098" d="M 2.5 219 L 3 221.5 L 2 221.5 L 2.5 219 Z " /><path fill="rgb(0,186,0)" stroke="rgb(0,186,0)" stroke-width="1" opacity="0.6392156862745098" d="M 509.5 219 L 510 222.5 L 509 222.5 L 509.5 219 Z " /><path fill="rgb(0,186,0)" stroke="rgb(0,186,0)" stroke-width="1" opacity="0.6392156862745098" d="M 1.5 227 L 2 230.5 L 1 230.5 L 1.5 227 Z " /><path fill="rgb(0,186,0)" stroke="rgb(0,186,0)" stroke-width="1" opacity="0.6392156862745098" d="M 510.5 227 L 511 230.5 L 510 230.5 L 510.5 227 Z " /><path fill="rgb(0,186,0)" stroke="rgb(0,186,0)" stroke-width="1" opacity="0.6392156862745098" d="M 0.5 238 L 1 246.5 L 0 246.5 L 0.5 238 Z " /><path fill="rgb(0,186,0)" stroke="rgb(0,186,0)" stroke-width="1" opacity="0.6392156862745098" d="M 511.5 238 L 512 246.5 L 511 246.5 L 511.5 238 Z " /><path fill="rgb(0,186,0)" stroke="rgb(0,186,0)" stroke-width="1" opacity="0.6392156862745098" d="M 0.5 265 L 1 273.5 L 0 273.5 L 0.5 265 Z " /><path fill="rgb(0,186,0)" stroke="rgb(0,186,0)" stroke-width="1" opacity="0.6392156862745098" d="M 511.5 265 L 512 273.5 L 511 273.5 L 511.5 265 Z " /><path fill="rgb(0,186,0)" stroke="rgb(0,186,0)" stroke-width="1" opacity="0.6392156862745098" d="M 510.5 280 L 511 284.5 L 510 284.5 L 510.5 280 Z " /><path fill="rgb(0,186,0)" stroke="rgb(0,186,0)" stroke-width="1" opacity="0.6392156862745098" d="M 1.5 281 L 2 284.5 L 1 284.5 L 1.5 281 Z " /><path fill="rgb(0,186,0)" stroke="rgb(0,186,0)" stroke-width="1" opacity="0.6392156862745098" d="M 509.5 289 L 510 292.5 L 509 292.5 L 509.5 289 Z " /><path fill="rgb(0,186,0)" stroke="rgb(0,186,0)" stroke-width="1" opacity="0.6392156862745098" d="M 2.5 290 L 3 292.5 L 2 292.5 L 2.5 290 Z " /><path fill="rgb(0,186,0)" stroke="rgb(0,186,0)" stroke-width="1" opacity="0.6392156862745098" d="M 3.5 296 L 4 298.5 L 3 298.5 L 3.5 296 Z " /><path fill="rgb(0,186,0)" stroke="rgb(0,186,0)" stroke-width="1" opacity="0.6392156862745098" d="M 508.5 296 L 509 298.5 L 508 298.5 L 508.5 296 Z " /><path fill="rgb(0,186,0)" stroke="rgb(0,186,0)" stroke-width="1" opacity="0.6392156862745098" d="M 4.5 302 L 5 304.5 L 4 304.5 L 4.5 302 Z " /><path fill="rgb(0,186,0)" stroke="rgb(0,186,0)" stroke-width="1" opacity="0.6392156862745098" d="M 507.5 302 L 508 304.5 L 507 304.5 L 507.5 302 Z " /><path fill="rgb(0,186,0)" stroke="rgb(0,186,0)" stroke-width="1" opacity="0.6392156862745098" d="M 5.5 307 L 6 309.5 L 5 309.5 L 5.5 307 Z " /><path fill="rgb(0,186,0)" stroke="rgb(0,186,0)" stroke-width="1" opacity="0.6392156862745098" d="M 506.5 307 L 507 309.5 L 506 309.5 L 506.5 307 Z " /><path fill="rgb(0,186,0)" stroke="rgb(0,186,0)" stroke-width="1" opacity="0.6392156862745098" d="M 30.5 377 L 31.5 379 L 30.5 377 Z " /><path fill="rgb(0,186,0)" stroke="rgb(0,186,0)" stroke-width="1" opacity="0.6392156862745098" d="M 481.5 377 L 480.5 379 L 481.5 377 Z " /><path fill="rgb(0,186,0)" stroke="rgb(0,186,0)" stroke-width="1" opacity="0.6392156862745098" d="M 34.5 384 L 35.5 386 L 34.5 384 Z " /><path fill="rgb(0,186,0)" stroke="rgb(0,186,0)" stroke-width="1" opacity="0.6392156862745098" d="M 477.5 384 L 476.5 386 L 477.5 384 Z " /><path fill="rgb(0,186,0)" stroke="rgb(0,186,0)" stroke-width="1" opacity="0.6392156862745098" d="M 37.5 389 L 38.5 391 L 37.5 389 Z " /><path fill="rgb(0,186,0)" stroke="rgb(0,186,0)" stroke-width="1" opacity="0.6392156862745098" d="M 474.5 389 L 473.5 391 L 474.5 389 Z " /><path fill="rgb(0,186,0)" stroke="rgb(0,186,0)" stroke-width="1" opacity="0.6392156862745098" d="M 47.5 404 L 48.5 406 L 47.5 404 Z " /><path fill="rgb(0,186,0)" stroke="rgb(0,186,0)" stroke-width="1" opacity="0.6392156862745098" d="M 464.5 404 L 463.5 406 L 464.5 404 Z " /><path fill="rgb(0,186,0)" stroke="rgb(0,186,0)" stroke-width="1" opacity="0.6392156862745098" d="M 53.5 412 L 54.5 414 L 53.5 412 Z " /><path fill="rgb(0,186,0)" stroke="rgb(0,186,0)" stroke-width="1" opacity="0.6392156862745098" d="M 458.5 412 L 457.5 414 L 458.5 412 Z " /><path fill="rgb(0,186,0)" stroke="rgb(0,186,0)" stroke-width="1" opacity="0.6392156862745098" d="M 56.5 416 L 58.5 419 L 56.5 416 Z " /><path fill="rgb(0,186,0)" stroke="rgb(0,186,0)" stroke-width="1" opacity="0.6392156862745098" d="M 455.5 416 L 453.5 419 L 455.5 416 Z " /><path fill="rgb(0,186,0)" stroke="rgb(0,186,0)" stroke-width="1" opacity="0.6392156862745098" d="M 61.5 422 L 64.5 426 L 61.5 422 Z " /><path fill="rgb(0,186,0)" stroke="rgb(0,186,0)" stroke-width="1" opacity="0.6392156862745098" d="M 450.5 422 L 447.5 426 L 450.5 422 Z " /><path fill="rgb(0,186,0)" stroke="rgb(0,186,0)" stroke-width="1" opacity="0.6392156862745098" d="M 441.5 432 L 433.5 441 L 441.5 432 Z " /><path fill="rgb(0,186,0)" stroke="rgb(0,186,0)" stroke-width="1" opacity="0.6392156862745098" d="M 71.5 433 L 78.5 441 L 71.5 433 Z " /><path fill="rgb(0,186,0)" stroke="rgb(0,186,0)" stroke-width="1" opacity="0.6392156862745098" d="M 86.5 447 L 89.5 451 L 86.5 447 Z " /><path fill="rgb(0,186,0)" stroke="rgb(0,186,0)" stroke-width="1" opacity="0.6392156862745098" d="M 425.5 447 L 422.5 451 L 425.5 447 Z " /><path fill="rgb(0,186,0)" stroke="rgb(0,186,0)" stroke-width="1" opacity="0.6392156862745098" d="M 93.5 453 L 95.5 456 L 93.5 453 Z " /><path fill="rgb(0,186,0)" stroke="rgb(0,186,0)" stroke-width="1" opacity="0.6392156862745098" d="M 418.5 453 L 416.5 456 L 418.5 453 Z " /><path fill="rgb(0,186,0)" stroke="rgb(0,186,0)" stroke-width="1" opacity="0.6392156862745098" d="M 98.5 457 L 99.5 459 L 98.5 457 Z " /><path fill="rgb(0,186,0)" stroke="rgb(0,186,0)" stroke-width="1" opacity="0.6392156862745098" d="M 413.5 457 L 412.5 459 L 413.5 457 Z " /><path fill="rgb(0,186,0)" stroke="rgb(0,186,0)" stroke-width="1" opacity="0.6392156862745098" d="M 408.5 461 L 407.5 463 L 408.5 461 Z " /><path fill="rgb(0,186,0)" stroke="rgb(0,186,0)" stroke-width="1" opacity="0.6392156862745098" d="M 106.5 463 L 107.5 465 L 106.5 463 Z " /><path fill="rgb(0,186,0)" stroke="rgb(0,186,0)" stroke-width="1" opacity="0.6392156862745098" d="M 405.5 463 L 404.5 465 L 405.5 463 Z " /><path fill="rgb(0,186,0)" stroke="rgb(0,186,0)" stroke-width="1" opacity="0.6392156862745098" d="M 121.5 473 L 122.5 475 L 121.5 473 Z " /><path fill="rgb(0,186,0)" stroke="rgb(0,186,0)" stroke-width="1" opacity="0.6392156862745098" d="M 390.5 473 L 389.5 475 L 390.5 473 Z " /><path fill="rgb(0,186,0)" stroke="rgb(0,186,0)" stroke-width="1" opacity="0.6392156862745098" d="M 385.5 476 L 384.5 478 L 385.5 476 Z " /><path fill="rgb(0,186,0)" stroke="rgb(0,186,0)" stroke-width="1" opacity="0.6392156862745098" d="M 133.5 480 L 134.5 482 L 133.5 480 Z " /><path fill="rgb(0,186,0)" stroke="rgb(0,186,0)" stroke-width="1" opacity="0.6392156862745098" d="M 378.5 480 L 377.5 482 L 378.5 480 Z " /><path fill="rgb(0,186,0)" stroke="rgb(0,186,0)" stroke-width="1" opacity="0.6392156862745098" d="M 202.5 506 L 205 506.5 L 202.5 507 L 202.5 506 Z " /><path fill="rgb(0,186,0)" stroke="rgb(0,186,0)" stroke-width="1" opacity="0.6392156862745098" d="M 307.5 506 L 310 506.5 L 307.5 507 L 307.5 506 Z " /><path fill="rgb(0,186,0)" stroke="rgb(0,186,0)" stroke-width="1" opacity="0.6392156862745098" d="M 207.5 507 L 210 507.5 L 207.5 508 L 207.5 507 Z " /><path fill="rgb(0,186,0)" stroke="rgb(0,186,0)" stroke-width="1" opacity="0.6392156862745098" d="M 302.5 507 L 305 507.5 L 302.5 508 L 302.5 507 Z " /><path fill="rgb(0,186,0)" stroke="rgb(0,186,0)" stroke-width="1" opacity="0.6392156862745098" d="M 213.5 508 L 216 508.5 L 213.5 509 L 213.5 508 Z " /><path fill="rgb(0,186,0)" stroke="rgb(0,186,0)" stroke-width="1" opacity="0.6392156862745098" d="M 219.5 509 L 223 509.5 L 219.5 510 L 219.5 509 Z " /><path fill="rgb(0,186,0)" stroke="rgb(0,186,0)" stroke-width="1" opacity="0.6392156862745098" d="M 289.5 509 L 293 509.5 L 289.5 510 L 289.5 509 Z " /><path fill="rgb(0,186,0)" stroke="rgb(0,186,0)" stroke-width="1" opacity="0.6392156862745098" d="M 227.5 510 L 231 510.5 L 227.5 511 L 227.5 510 Z " /><path fill="rgb(0,186,0)" stroke="rgb(0,186,0)" stroke-width="1" opacity="0.6392156862745098" d="M 281.5 510 L 285 510.5 L 281.5 511 L 281.5 510 Z " /><path fill="rgb(0,186,0)" stroke="rgb(0,186,0)" stroke-width="1" opacity="0.6392156862745098" d="M 238.5 511 L 247 511.5 L 238.5 512 L 238.5 511 Z " /><path fill="rgb(0,186,0)" stroke="rgb(0,186,0)" stroke-width="1" opacity="0.6392156862745098" d="M 265.5 511 L 274 511.5 L 265.5 512 L 265.5 511 Z " /><path fill="rgb(0,186,0)" stroke="rgb(0,186,0)" stroke-width="1" opacity="1" d="M 247.5 0 L 280.5 1 L 281.5 2 L 302.5 4 L 327.5 10 L 355.5 20 Q 410.2 43.8 447 85.5 Q 478 119.5 496 166.5 L 502 184.5 L 509 216.5 L 510 230.5 L 511 231.5 L 512 264.5 L 511 265.5 L 510 288.5 L 506 311.5 L 502 327.5 L 489 362.5 Q 465.5 412.5 426.5 447 Q 392.4 477.9 345.5 496 L 327.5 502 L 296.5 509 L 289.5 509 L 280.5 511 L 265.5 511 L 264.5 512 L 247.5 512 L 246.5 511 L 223.5 510 L 200.5 506 Q 171.5 499.5 147.5 488 Q 98.8 464.8 65 426.5 Q 34.1 392.4 16 345.5 L 10 327.5 L 2 289.5 L 1 265.5 L 0 264.5 L 0 247.5 L 1 246.5 L 2 222.5 L 3 221.5 L 5 204.5 L 10 184.5 L 23 149.5 Q 46.5 99.5 85.5 65 Q 116 37.5 156.5 20 L 184.5 10 L 204.5 5 L 209.5 5 L 222.5 2 L 246.5 1 L 247.5 0 Z M 392 143 L 379 149 L 205 311 L 136 238 Q 128 226 111 223 Q 95 223 87 230 L 78 240 L 74 249 Q 75 253 73 255 Q 73 271 81 280 L 202 408 L 408 216 L 427 197 L 433 183 L 433 171 L 427 157 Q 421 148 411 144 Q 403 142 392 143 Z " /><path fill="rgb(0,184,0)" stroke="rgb(0,184,0)" stroke-width="1" opacity="0.050980392156862744" d="M 233.5 0 L 238 0.5 L 233.5 1 L 233.5 0 Z " /><path fill="rgb(0,184,0)" stroke="rgb(0,184,0)" stroke-width="1" opacity="0.050980392156862744" d="M 274.5 0 L 279 0.5 L 274.5 1 L 274.5 0 Z " /><path fill="rgb(0,184,0)" stroke="rgb(0,184,0)" stroke-width="1" opacity="0.050980392156862744" d="M 224.5 1 L 227 1.5 L 224.5 2 L 224.5 1 Z " /><path fill="rgb(0,184,0)" stroke="rgb(0,184,0)" stroke-width="1" opacity="0.050980392156862744" d="M 285.5 1 L 288 1.5 L 285.5 2 L 285.5 1 Z " /><path fill="rgb(0,184,0)" stroke="rgb(0,184,0)" stroke-width="1" opacity="0.050980392156862744" d="M 216.5 2 L 219 2.5 L 216.5 3 L 216.5 2 Z " /><path fill="rgb(0,184,0)" stroke="rgb(0,184,0)" stroke-width="1" opacity="0.050980392156862744" d="M 293.5 2 L 296 2.5 L 293.5 3 L 293.5 2 Z " /><path fill="rgb(0,184,0)" stroke="rgb(0,184,0)" stroke-width="1" opacity="0.050980392156862744" d="M 299.5 3 L 302 3.5 L 299.5 4 L 299.5 3 Z " /><path fill="rgb(0,184,0)" stroke="rgb(0,184,0)" stroke-width="1" opacity="0.050980392156862744" d="M 133.5 30 L 132.5 32 L 133.5 30 Z " /><path fill="rgb(0,184,0)" stroke="rgb(0,184,0)" stroke-width="1" opacity="0.050980392156862744" d="M 378.5 30 L 379.5 32 L 378.5 30 Z " /><path fill="rgb(0,184,0)" stroke="rgb(0,184,0)" stroke-width="1" opacity="0.050980392156862744" d="M 126.5 34 L 125.5 36 L 126.5 34 Z " /><path fill="rgb(0,184,0)" stroke="rgb(0,184,0)" stroke-width="1" opacity="0.050980392156862744" d="M 385.5 34 L 386.5 36 L 385.5 34 Z " /><path fill="rgb(0,184,0)" stroke="rgb(0,184,0)" stroke-width="1" opacity="0.050980392156862744" d="M 121.5 37 L 120.5 39 L 121.5 37 Z " /><path fill="rgb(0,184,0)" stroke="rgb(0,184,0)" stroke-width="1" opacity="0.050980392156862744" d="M 390.5 37 L 391.5 39 L 390.5 37 Z " /><path fill="rgb(0,184,0)" stroke="rgb(0,184,0)" stroke-width="1" opacity="0.050980392156862744" d="M 118.5 39 L 117.5 41 L 118.5 39 Z " /><path fill="rgb(0,184,0)" stroke="rgb(0,184,0)" stroke-width="1" opacity="0.050980392156862744" d="M 393.5 39 L 394.5 41 L 393.5 39 Z " /><path fill="rgb(0,184,0)" stroke="rgb(0,184,0)" stroke-width="1" opacity="0.050980392156862744" d="M 115.5 41 L 114.5 43 L 115.5 41 Z " /><path fill="rgb(0,184,0)" stroke="rgb(0,184,0)" stroke-width="1" opacity="0.050980392156862744" d="M 112.5 43 L 111.5 45 L 112.5 43 Z " /><path fill="rgb(0,184,0)" stroke="rgb(0,184,0)" stroke-width="1" opacity="0.050980392156862744" d="M 109.5 45 L 108.5 47 L 109.5 45 Z " /><path fill="rgb(0,184,0)" stroke="rgb(0,184,0)" stroke-width="1" opacity="0.050980392156862744" d="M 402.5 45 L 403.5 47 L 402.5 45 Z " /><path fill="rgb(0,184,0)" stroke="rgb(0,184,0)" stroke-width="1" opacity="0.050980392156862744" d="M 106.5 47 L 104.5 50 L 106.5 47 Z " /><path fill="rgb(0,184,0)" stroke="rgb(0,184,0)" stroke-width="1" opacity="0.050980392156862744" d="M 405.5 47 L 406.5 49 L 405.5 47 Z " /><path fill="rgb(0,184,0)" stroke="rgb(0,184,0)" stroke-width="1" opacity="0.050980392156862744" d="M 102.5 50 L 100.5 53 L 102.5 50 Z " /><path fill="rgb(0,184,0)" stroke="rgb(0,184,0)" stroke-width="1" opacity="0.050980392156862744" d="M 409.5 50 L 411.5 53 L 409.5 50 Z " /><path fill="rgb(0,184,0)" stroke="rgb(0,184,0)" stroke-width="1" opacity="0.050980392156862744" d="M 98.5 53 L 96.5 56 L 98.5 53 Z " /><path fill="rgb(0,184,0)" stroke="rgb(0,184,0)" stroke-width="1" opacity="0.050980392156862744" d="M 413.5 53 L 415.5 56 L 413.5 53 Z " /><path fill="rgb(0,184,0)" stroke="rgb(0,184,0)" stroke-width="1" opacity="0.050980392156862744" d="M 93.5 57 L 90.5 61 L 93.5 57 Z " /><path fill="rgb(0,184,0)" stroke="rgb(0,184,0)" stroke-width="1" opacity="0.050980392156862744" d="M 418.5 57 L 421.5 61 L 418.5 57 Z " /><path fill="rgb(0,184,0)" stroke="rgb(0,184,0)" stroke-width="1" opacity="0.050980392156862744" d="M 87.5 62 L 81.5 69 L 87.5 62 Z " /><path fill="rgb(0,184,0)" stroke="rgb(0,184,0)" stroke-width="1" opacity="0.050980392156862744" d="M 424.5 62 L 432.5 71 L 424.5 62 Z " /><path fill="rgb(0,184,0)" stroke="rgb(0,184,0)" stroke-width="1" opacity="0.050980392156862744" d="M 441.5 79 L 449.5 88 L 441.5 79 Z " /><path fill="rgb(0,184,0)" stroke="rgb(0,184,0)" stroke-width="1" opacity="0.050980392156862744" d="M 68.5 81 L 62.5 88 L 68.5 81 Z " /><path fill="rgb(0,184,0)" stroke="rgb(0,184,0)" stroke-width="1" opacity="0.050980392156862744" d="M 60.5 90 L 57.5 94 L 60.5 90 Z " /><path fill="rgb(0,184,0)" stroke="rgb(0,184,0)" stroke-width="1" opacity="0.050980392156862744" d="M 451.5 90 L 454.5 94 L 451.5 90 Z " /><path fill="rgb(0,184,0)" stroke="rgb(0,184,0)" stroke-width="1" opacity="0.050980392156862744" d="M 55.5 96 L 53.5 99 L 55.5 96 Z " /><path fill="rgb(0,184,0)" stroke="rgb(0,184,0)" stroke-width="1" opacity="0.050980392156862744" d="M 456.5 96 L 458.5 99 L 456.5 96 Z " /><path fill="rgb(0,184,0)" stroke="rgb(0,184,0)" stroke-width="1" opacity="0.050980392156862744" d="M 52.5 100 L 50.5 103 L 52.5 100 Z " /><path fill="rgb(0,184,0)" stroke="rgb(0,184,0)" stroke-width="1" opacity="0.050980392156862744" d="M 459.5 100 L 461.5 103 L 459.5 100 Z " /><path fill="rgb(0,184,0)" stroke="rgb(0,184,0)" stroke-width="1" opacity="0.050980392156862744" d="M 49.5 104 L 47.5 107 L 49.5 104 Z " /><path fill="rgb(0,184,0)" stroke="rgb(0,184,0)" stroke-width="1" opacity="0.050980392156862744" d="M 462.5 104 L 464.5 107 L 462.5 104 Z " /><path fill="rgb(0,184,0)" stroke="rgb(0,184,0)" stroke-width="1" opacity="0.050980392156862744" d="M 46.5 108 L 45.5 110 L 46.5 108 Z " /><path fill="rgb(0,184,0)" stroke="rgb(0,184,0)" stroke-width="1" opacity="0.050980392156862744" d="M 465.5 108 L 466.5 110 L 465.5 108 Z " /><path fill="rgb(0,184,0)" stroke="rgb(0,184,0)" stroke-width="1" opacity="0.050980392156862744" d="M 44.5 111 L 43.5 113 L 44.5 111 Z " /><path fill="rgb(0,184,0)" stroke="rgb(0,184,0)" stroke-width="1" opacity="0.050980392156862744" d="M 467.5 111 L 468.5 113 L 467.5 111 Z " /><path fill="rgb(0,184,0)" stroke="rgb(0,184,0)" stroke-width="1" opacity="0.050980392156862744" d="M 40.5 117 L 39.5 119 L 40.5 117 Z " /><path fill="rgb(0,184,0)" stroke="rgb(0,184,0)" stroke-width="1" opacity="0.050980392156862744" d="M 471.5 117 L 472.5 119 L 471.5 117 Z " /><path fill="rgb(0,184,0)" stroke="rgb(0,184,0)" stroke-width="1" opacity="0.050980392156862744" d="M 38.5 120 L 37.5 122 L 38.5 120 Z " /><path fill="rgb(0,184,0)" stroke="rgb(0,184,0)" stroke-width="1" opacity="0.050980392156862744" d="M 473.5 120 L 474.5 122 L 473.5 120 Z " /><path fill="rgb(0,184,0)" stroke="rgb(0,184,0)" stroke-width="1" opacity="0.050980392156862744" d="M 35.5 125 L 34.5 127 L 35.5 125 Z " /><path fill="rgb(0,184,0)" stroke="rgb(0,184,0)" stroke-width="1" opacity="0.050980392156862744" d="M 476.5 125 L 477.5 127 L 476.5 125 Z " /><path fill="rgb(0,184,0)" stroke="rgb(0,184,0)" stroke-width="1" opacity="0.050980392156862744" d="M 31.5 132 L 30.5 134 L 31.5 132 Z " /><path fill="rgb(0,184,0)" stroke="rgb(0,184,0)" stroke-width="1" opacity="0.050980392156862744" d="M 480.5 132 L 481.5 134 L 480.5 132 Z " /><path fill="rgb(0,184,0)" stroke="rgb(0,184,0)" stroke-width="1" opacity="0.050980392156862744" d="M 3.5 210 L 4 212.5 L 3 212.5 L 3.5 210 Z " /><path fill="rgb(0,184,0)" stroke="rgb(0,184,0)" stroke-width="1" opacity="0.050980392156862744" d="M 508.5 210 L 509 212.5 L 508 212.5 L 508.5 210 Z " /><path fill="rgb(0,184,0)" stroke="rgb(0,184,0)" stroke-width="1" opacity="0.050980392156862744" d="M 2.5 216 L 3 218.5 L 2 218.5 L 2.5 216 Z " /><path fill="rgb(0,184,0)" stroke="rgb(0,184,0)" stroke-width="1" opacity="0.050980392156862744" d="M 509.5 216 L 510 218.5 L 509 218.5 L 509.5 216 Z " /><path fill="rgb(0,184,0)" stroke="rgb(0,184,0)" stroke-width="1" opacity="0.050980392156862744" d="M 1.5 223 L 2 226.5 L 1 226.5 L 1.5 223 Z " /><path fill="rgb(0,184,0)" stroke="rgb(0,184,0)" stroke-width="1" opacity="0.050980392156862744" d="M 510.5 224 L 511 226.5 L 510 226.5 L 510.5 224 Z " /><path fill="rgb(0,184,0)" stroke="rgb(0,184,0)" stroke-width="1" opacity="0.050980392156862744" d="M 0.5 233 L 1 237.5 L 0 237.5 L 0.5 233 Z " /><path fill="rgb(0,184,0)" stroke="rgb(0,184,0)" stroke-width="1" opacity="0.050980392156862744" d="M 511.5 233 L 512 237.5 L 511 237.5 L 511.5 233 Z " /><path fill="rgb(0,184,0)" stroke="rgb(0,184,0)" stroke-width="1" opacity="0.050980392156862744" d="M 0.5 274 L 1 278.5 L 0 278.5 L 0.5 274 Z " /><path fill="rgb(0,184,0)" stroke="rgb(0,184,0)" stroke-width="1" opacity="0.050980392156862744" d="M 511.5 274 L 512 278.5 L 511 278.5 L 511.5 274 Z " /><path fill="rgb(0,184,0)" stroke="rgb(0,184,0)" stroke-width="1" opacity="0.050980392156862744" d="M 1.5 285 L 2 287.5 L 1 287.5 L 1.5 285 Z " /><path fill="rgb(0,184,0)" stroke="rgb(0,184,0)" stroke-width="1" opacity="0.050980392156862744" d="M 510.5 285 L 511 287.5 L 510 287.5 L 510.5 285 Z " /><path fill="rgb(0,184,0)" stroke="rgb(0,184,0)" stroke-width="1" opacity="0.050980392156862744" d="M 2.5 293 L 3 295.5 L 2 295.5 L 2.5 293 Z " /><path fill="rgb(0,184,0)" stroke="rgb(0,184,0)" stroke-width="1" opacity="0.050980392156862744" d="M 509.5 293 L 510 295.5 L 509 295.5 L 509.5 293 Z " /><path fill="rgb(0,184,0)" stroke="rgb(0,184,0)" stroke-width="1" opacity="0.050980392156862744" d="M 3.5 299 L 4 301.5 L 3 301.5 L 3.5 299 Z " /><path fill="rgb(0,184,0)" stroke="rgb(0,184,0)" stroke-width="1" opacity="0.050980392156862744" d="M 508.5 299 L 509 301.5 L 508 301.5 L 508.5 299 Z " /><path fill="rgb(0,184,0)" stroke="rgb(0,184,0)" stroke-width="1" opacity="0.050980392156862744" d="M 30.5 378 L 31.5 380 L 30.5 378 Z " /><path fill="rgb(0,184,0)" stroke="rgb(0,184,0)" stroke-width="1" opacity="0.050980392156862744" d="M 481.5 378 L 480.5 380 L 481.5 378 Z " /><path fill="rgb(0,184,0)" stroke="rgb(0,184,0)" stroke-width="1" opacity="0.050980392156862744" d="M 34.5 385 L 35.5 387 L 34.5 385 Z " /><path fill="rgb(0,184,0)" stroke="rgb(0,184,0)" stroke-width="1" opacity="0.050980392156862744" d="M 477.5 385 L 476.5 387 L 477.5 385 Z " /><path fill="rgb(0,184,0)" stroke="rgb(0,184,0)" stroke-width="1" opacity="0.050980392156862744" d="M 37.5 390 L 38.5 392 L 37.5 390 Z " /><path fill="rgb(0,184,0)" stroke="rgb(0,184,0)" stroke-width="1" opacity="0.050980392156862744" d="M 474.5 390 L 473.5 392 L 474.5 390 Z " /><path fill="rgb(0,184,0)" stroke="rgb(0,184,0)" stroke-width="1" opacity="0.050980392156862744" d="M 39.5 393 L 40.5 395 L 39.5 393 Z " /><path fill="rgb(0,184,0)" stroke="rgb(0,184,0)" stroke-width="1" opacity="0.050980392156862744" d="M 472.5 393 L 471.5 395 L 472.5 393 Z " /><path fill="rgb(0,184,0)" stroke="rgb(0,184,0)" stroke-width="1" opacity="0.050980392156862744" d="M 41.5 396 L 42.5 398 L 41.5 396 Z " /><path fill="rgb(0,184,0)" stroke="rgb(0,184,0)" stroke-width="1" opacity="0.050980392156862744" d="M 470.5 396 L 469.5 398 L 470.5 396 Z " /><path fill="rgb(0,184,0)" stroke="rgb(0,184,0)" stroke-width="1" opacity="0.050980392156862744" d="M 43.5 399 L 44.5 401 L 43.5 399 Z " /><path fill="rgb(0,184,0)" stroke="rgb(0,184,0)" stroke-width="1" opacity="0.050980392156862744" d="M 468.5 399 L 467.5 401 L 468.5 399 Z " /><path fill="rgb(0,184,0)" stroke="rgb(0,184,0)" stroke-width="1" opacity="0.050980392156862744" d="M 45.5 402 L 46.5 404 L 45.5 402 Z " /><path fill="rgb(0,184,0)" stroke="rgb(0,184,0)" stroke-width="1" opacity="0.050980392156862744" d="M 466.5 402 L 465.5 404 L 466.5 402 Z " /><path fill="rgb(0,184,0)" stroke="rgb(0,184,0)" stroke-width="1" opacity="0.050980392156862744" d="M 47.5 405 L 49.5 408 L 47.5 405 Z " /><path fill="rgb(0,184,0)" stroke="rgb(0,184,0)" stroke-width="1" opacity="0.050980392156862744" d="M 464.5 405 L 462.5 408 L 464.5 405 Z " /><path fill="rgb(0,184,0)" stroke="rgb(0,184,0)" stroke-width="1" opacity="0.050980392156862744" d="M 50.5 409 L 52.5 412 L 50.5 409 Z " /><path fill="rgb(0,184,0)" stroke="rgb(0,184,0)" stroke-width="1" opacity="0.050980392156862744" d="M 461.5 409 L 459.5 412 L 461.5 409 Z " /><path fill="rgb(0,184,0)" stroke="rgb(0,184,0)" stroke-width="1" opacity="0.050980392156862744" d="M 53.5 413 L 55.5 416 L 53.5 413 Z " /><path fill="rgb(0,184,0)" stroke="rgb(0,184,0)" stroke-width="1" opacity="0.050980392156862744" d="M 458.5 413 L 456.5 416 L 458.5 413 Z " /><path fill="rgb(0,184,0)" stroke="rgb(0,184,0)" stroke-width="1" opacity="0.050980392156862744" d="M 57.5 418 L 60.5 422 L 57.5 418 Z " /><path fill="rgb(0,184,0)" stroke="rgb(0,184,0)" stroke-width="1" opacity="0.050980392156862744" d="M 454.5 418 L 451.5 422 L 454.5 418 Z " /><path fill="rgb(0,184,0)" stroke="rgb(0,184,0)" stroke-width="1" opacity="0.050980392156862744" d="M 62.5 424 L 70.5 433 L 62.5 424 Z " /><path fill="rgb(0,184,0)" stroke="rgb(0,184,0)" stroke-width="1" opacity="0.050980392156862744" d="M 449.5 424 L 442.5 432 L 449.5 424 Z " /><path fill="rgb(0,184,0)" stroke="rgb(0,184,0)" stroke-width="1" opacity="0.050980392156862744" d="M 79.5 441 L 87.5 450 L 79.5 441 Z " /><path fill="rgb(0,184,0)" stroke="rgb(0,184,0)" stroke-width="1" opacity="0.050980392156862744" d="M 432.5 441 L 424.5 450 L 432.5 441 Z " /><path fill="rgb(0,184,0)" stroke="rgb(0,184,0)" stroke-width="1" opacity="0.050980392156862744" d="M 90.5 451 L 93.5 455 L 90.5 451 Z " /><path fill="rgb(0,184,0)" stroke="rgb(0,184,0)" stroke-width="1" opacity="0.050980392156862744" d="M 421.5 451 L 418.5 455 L 421.5 451 Z " /><path fill="rgb(0,184,0)" stroke="rgb(0,184,0)" stroke-width="1" opacity="0.050980392156862744" d="M 96.5 456 L 98.5 459 L 96.5 456 Z " /><path fill="rgb(0,184,0)" stroke="rgb(0,184,0)" stroke-width="1" opacity="0.050980392156862744" d="M 415.5 456 L 413.5 459 L 415.5 456 Z " /><path fill="rgb(0,184,0)" stroke="rgb(0,184,0)" stroke-width="1" opacity="0.050980392156862744" d="M 100.5 459 L 102.5 462 L 100.5 459 Z " /><path fill="rgb(0,184,0)" stroke="rgb(0,184,0)" stroke-width="1" opacity="0.050980392156862744" d="M 411.5 459 L 409.5 462 L 411.5 459 Z " /><path fill="rgb(0,184,0)" stroke="rgb(0,184,0)" stroke-width="1" opacity="0.050980392156862744" d="M 104.5 462 L 106.5 465 L 104.5 462 Z " /><path fill="rgb(0,184,0)" stroke="rgb(0,184,0)" stroke-width="1" opacity="0.050980392156862744" d="M 406.5 463 L 405.5 465 L 406.5 463 Z " /><path fill="rgb(0,184,0)" stroke="rgb(0,184,0)" stroke-width="1" opacity="0.050980392156862744" d="M 108.5 465 L 109.5 467 L 108.5 465 Z " /><path fill="rgb(0,184,0)" stroke="rgb(0,184,0)" stroke-width="1" opacity="0.050980392156862744" d="M 403.5 465 L 402.5 467 L 403.5 465 Z " /><path fill="rgb(0,184,0)" stroke="rgb(0,184,0)" stroke-width="1" opacity="0.050980392156862744" d="M 111.5 467 L 112.5 469 L 111.5 467 Z " /><path fill="rgb(0,184,0)" stroke="rgb(0,184,0)" stroke-width="1" opacity="0.050980392156862744" d="M 400.5 467 L 399.5 469 L 400.5 467 Z " /><path fill="rgb(0,184,0)" stroke="rgb(0,184,0)" stroke-width="1" opacity="0.050980392156862744" d="M 114.5 469 L 115.5 471 L 114.5 469 Z " /><path fill="rgb(0,184,0)" stroke="rgb(0,184,0)" stroke-width="1" opacity="0.050980392156862744" d="M 397.5 469 L 396.5 471 L 397.5 469 Z " /><path fill="rgb(0,184,0)" stroke="rgb(0,184,0)" stroke-width="1" opacity="0.050980392156862744" d="M 117.5 471 L 118.5 473 L 117.5 471 Z " /><path fill="rgb(0,184,0)" stroke="rgb(0,184,0)" stroke-width="1" opacity="0.050980392156862744" d="M 394.5 471 L 393.5 473 L 394.5 471 Z " /><path fill="rgb(0,184,0)" stroke="rgb(0,184,0)" stroke-width="1" opacity="0.050980392156862744" d="M 120.5 473 L 121.5 475 L 120.5 473 Z " /><path fill="rgb(0,184,0)" stroke="rgb(0,184,0)" stroke-width="1" opacity="0.050980392156862744" d="M 391.5 473 L 390.5 475 L 391.5 473 Z " /><path fill="rgb(0,184,0)" stroke="rgb(0,184,0)" stroke-width="1" opacity="0.050980392156862744" d="M 125.5 476 L 126.5 478 L 125.5 476 Z " /><path fill="rgb(0,184,0)" stroke="rgb(0,184,0)" stroke-width="1" opacity="0.050980392156862744" d="M 386.5 476 L 385.5 478 L 386.5 476 Z " /><path fill="rgb(0,184,0)" stroke="rgb(0,184,0)" stroke-width="1" opacity="0.050980392156862744" d="M 132.5 480 L 133.5 482 L 132.5 480 Z " /><path fill="rgb(0,184,0)" stroke="rgb(0,184,0)" stroke-width="1" opacity="0.050980392156862744" d="M 379.5 480 L 378.5 482 L 379.5 480 Z " /><path fill="rgb(0,184,0)" stroke="rgb(0,184,0)" stroke-width="1" opacity="0.050980392156862744" d="M 299.5 508 L 302 508.5 L 299.5 509 L 299.5 508 Z " /><path fill="rgb(0,184,0)" stroke="rgb(0,184,0)" stroke-width="1" opacity="0.050980392156862744" d="M 216.5 509 L 219 509.5 L 216.5 510 L 216.5 509 Z " /><path fill="rgb(0,184,0)" stroke="rgb(0,184,0)" stroke-width="1" opacity="0.050980392156862744" d="M 293.5 509 L 296 509.5 L 293.5 510 L 293.5 509 Z " /><path fill="rgb(0,184,0)" stroke="rgb(0,184,0)" stroke-width="1" opacity="0.050980392156862744" d="M 224.5 510 L 227 510.5 L 224.5 511 L 224.5 510 Z " /><path fill="rgb(0,184,0)" stroke="rgb(0,184,0)" stroke-width="1" opacity="0.050980392156862744" d="M 285.5 510 L 288 510.5 L 285.5 511 L 285.5 510 Z " /><path fill="rgb(0,184,0)" stroke="rgb(0,184,0)" stroke-width="1" opacity="0.050980392156862744" d="M 233.5 511 L 238 511.5 L 233.5 512 L 233.5 511 Z " /><path fill="rgb(0,184,0)" stroke="rgb(0,184,0)" stroke-width="1" opacity="0.050980392156862744" d="M 274.5 511 L 279 511.5 L 274.5 512 L 274.5 511 Z " /><path fill="rgb(0,0,0)" stroke="rgb(0,0,0)" stroke-width="1" opacity="0" d="M 0 0 L 233 0.5 L 205.5 4 L 181.5 10 Q 155.5 18 133.5 30 Q 92 53 62 87.5 Q 35.8 117.3 19 156.5 Q 10.4 176.9 5 200.5 L 1 223.5 L 0.5 233 L 0 0 Z " /><path fill="rgb(0,0,0)" stroke="rgb(0,0,0)" stroke-width="1" opacity="0" d="M 279.5 0 L 512 0 L 512 232.5 L 511 232.5 L 509 210.5 L 502 181.5 Q 494 155.5 482 133.5 Q 459 92 424.5 62 Q 397.3 38.2 362.5 22 L 323.5 8 L 295.5 2 L 279.5 1 L 279.5 0 Z " /><path fill="rgb(0,0,0)" stroke="rgb(0,0,0)" stroke-width="1" opacity="0" d="M 0.5 279 L 3 301.5 L 10 330.5 Q 18 356.5 30 378.5 Q 53 420 87.5 450 Q 117.3 476.2 156.5 493 Q 176.9 501.6 200.5 507 L 233 511.5 L 0 512 L 0.5 279 Z " /><path fill="rgb(0,0,0)" stroke="rgb(0,0,0)" stroke-width="1" opacity="0" d="M 511.5 279 L 512 512 L 279 511.5 L 301.5 509 L 330.5 502 Q 356.5 494 378.5 482 Q 420 459 450 424.5 Q 476.2 394.7 493 355.5 Q 501.6 335.1 507 311.5 L 511.5 279 Z " /><path fill="rgb(254,254,254)" stroke="rgb(254,254,254)" stroke-width="1" opacity="1" d="M 391.5 143 Q 403 141.5 410.5 144 Q 420.8 148.2 427 156.5 L 433 170.5 L 433 182.5 L 427 196.5 L 407.5 216 L 201.5 408 L 81 279.5 Q 72.9 271.1 73 254.5 Q 75.3 253.3 74 248.5 L 78 239.5 L 86.5 230 Q 94.5 222.5 110.5 223 Q 127.8 225.8 136 237.5 L 204.5 311 L 378.5 149 L 391.5 143 Z " /></svg>