<svg width="595" height="630" viewBox="0 0 595 630" fill="none" xmlns="http://www.w3.org/2000/svg">
<path d="M279.184 321.967L279.182 321.964C277.128 317.099 272.339 314.136 267.85 311.861C266.777 311.317 265.705 310.804 264.677 310.314L264.501 310.229C263.416 309.711 262.387 309.217 261.439 308.725C259.514 307.724 258.06 306.793 257.224 305.806L257.224 305.806L257.216 305.798C256.429 304.889 256.179 303.909 256.318 302.922C256.461 301.904 257.031 300.802 258.025 299.752C260.014 297.649 263.534 295.941 267.706 295.751C271.37 295.585 275.501 296.595 279.633 297.606C280.261 297.76 280.89 297.913 281.516 298.063C283.85 298.62 286.157 299.115 288.269 299.279C290.374 299.443 292.395 299.289 294.102 298.45C295.82 297.605 297.084 296.135 298.082 294.411C299.079 292.69 299.855 290.638 300.559 288.532C300.862 287.627 301.146 286.728 301.43 285.832C301.823 284.591 302.214 283.356 302.648 282.12C303.383 280.029 304.19 278.095 305.203 276.491C309.302 270.161 317.087 268.401 324.084 270.414C331.09 272.429 337.207 278.095 339.201 284.932L339.201 284.933L339.204 284.945C341.299 291.8 339.275 299.808 333.006 304.021C331.389 305.09 329.476 305.944 327.443 306.842L327.295 306.908C325.335 307.773 323.273 308.683 321.438 309.845C319.545 311.044 317.837 312.544 316.672 314.614C315.503 316.691 314.927 319.261 315.163 322.521C315.372 325.726 316.38 329.635 317.728 333.664C319.082 337.708 320.8 341.938 322.468 345.799C323.64 348.514 324.794 351.062 325.778 353.236C326.165 354.09 326.525 354.886 326.85 355.612C325.334 353.777 323.384 351.424 321.165 348.969C318.554 346.082 315.549 343.03 312.4 340.486C309.264 337.951 305.916 335.864 302.618 334.986C295.946 333.21 289.909 336.465 285.452 339.884C283.443 341.425 281.7 343.043 280.325 344.319C280.164 344.468 280.008 344.613 279.857 344.753C279.182 345.377 278.631 345.875 278.191 346.223C278.218 345.898 278.27 345.495 278.348 345.011C278.487 344.145 278.68 343.163 278.897 342.056C279.107 340.983 279.341 339.791 279.571 338.475C280.024 335.879 280.428 332.97 280.473 330.118C280.518 327.275 280.208 324.42 279.184 321.967ZM277.515 346.67C277.515 346.67 277.518 346.669 277.524 346.667C277.518 346.67 277.515 346.67 277.515 346.67Z" stroke="#2F2F2F" stroke-width="2"/>
<path d="M268.236 326.58L268.235 326.577C265.243 319.514 258.246 315.172 251.544 311.786C249.947 310.979 248.351 310.219 246.816 309.488L246.554 309.363C244.934 308.592 243.39 307.854 241.966 307.116C239.089 305.625 236.84 304.203 235.522 302.654L235.522 302.654L235.515 302.645C234.247 301.187 233.832 299.588 234.059 297.979C234.291 296.338 235.204 294.61 236.737 292.995C239.804 289.762 245.187 287.174 251.53 286.887C257.078 286.635 263.326 288.159 269.489 289.662C270.425 289.89 271.36 290.118 272.29 290.34C275.774 291.168 279.186 291.897 282.297 292.138C285.402 292.379 288.316 292.146 290.75 290.953C293.196 289.755 295.021 287.656 296.485 285.137C297.948 282.619 299.094 279.604 300.143 276.476C300.589 275.146 301.013 273.812 301.436 272.48C302.026 270.622 302.616 268.766 303.265 266.925C304.366 263.8 305.586 260.88 307.13 258.446C313.398 248.795 325.278 246.154 335.878 249.193C346.485 252.235 355.758 260.784 358.787 271.136L358.787 271.136L358.791 271.148C361.97 281.518 358.912 293.677 349.337 300.088C346.882 301.706 343.986 302.994 340.956 304.328L340.749 304.419C337.812 305.712 334.763 307.054 332.054 308.763C329.271 310.52 326.79 312.699 325.103 315.687C323.411 318.683 322.564 322.41 322.911 327.184C323.219 331.891 324.707 337.662 326.717 343.648C328.732 349.649 331.292 355.93 333.78 361.671C335.529 365.708 337.248 369.493 338.718 372.728C339.337 374.091 339.911 375.356 340.425 376.501C340.924 377.613 341.364 378.608 341.732 379.471C341.393 379.069 341.025 378.628 340.63 378.153C340.324 377.785 340.003 377.398 339.668 376.994C337.378 374.232 334.408 370.65 331.014 366.909C327.124 362.62 322.656 358.099 317.982 354.334C313.32 350.58 308.384 347.522 303.558 346.242C293.829 343.661 284.982 348.379 278.354 353.447C275.373 355.725 272.787 358.118 270.733 360.017C270.492 360.24 270.259 360.456 270.033 360.664C268.945 361.667 268.054 362.469 267.351 363.006C267.087 363.208 266.869 363.357 266.692 363.461C266.69 363.438 266.689 363.413 266.688 363.388C266.661 362.783 266.757 361.857 266.957 360.614C267.154 359.388 267.44 357.927 267.764 356.275L267.787 356.158C268.104 354.544 268.454 352.761 268.784 350.879C269.46 347.026 270.058 342.725 270.124 338.517C270.191 334.318 269.729 330.145 268.236 326.58Z" stroke="#2F2F2F" stroke-width="2"/>
<path d="M252.465 332.915L252.464 332.911C247.964 322.303 237.417 315.735 227.156 310.556C224.716 309.325 222.276 308.165 219.924 307.047L219.525 306.857C217.046 305.678 214.673 304.545 212.484 303.412C208.077 301.131 204.548 298.915 202.457 296.46L202.45 296.452C200.409 294.107 199.726 291.508 200.096 288.893C200.47 286.248 201.936 283.507 204.336 280.981C209.139 275.926 217.516 271.919 227.351 271.474C235.929 271.086 245.58 273.438 255.007 275.735C256.44 276.084 257.868 276.432 259.286 276.769C264.62 278.036 269.809 279.141 274.528 279.507C279.24 279.872 283.592 279.511 287.196 277.747C290.812 275.978 293.539 272.865 295.752 269.061C297.963 265.259 299.704 260.691 301.309 255.912C301.985 253.898 302.633 251.863 303.281 249.825C304.188 246.973 305.098 244.114 306.092 241.298C307.783 236.504 309.667 231.994 312.064 228.221C321.823 213.211 340.287 209.151 356.678 213.846C373.077 218.542 387.426 231.74 392.121 247.766L392.125 247.778C397.049 263.82 392.326 282.676 377.437 292.633C373.633 295.138 369.155 297.126 364.522 299.163L364.22 299.295C359.711 301.277 355.074 303.315 350.961 305.908C346.744 308.566 343.021 311.841 340.495 316.31C337.964 320.787 336.68 326.381 337.206 333.599C337.672 340.729 339.935 349.504 343.008 358.646C346.086 367.804 350 377.394 353.807 386.169C356.483 392.339 359.112 398.12 361.362 403.067C362.31 405.152 363.191 407.09 363.98 408.845C365.313 411.812 366.377 414.248 367.064 416.016C367.112 416.14 367.158 416.261 367.203 416.377C366.221 415.295 364.944 413.78 363.399 411.925C362.931 411.362 362.439 410.77 361.925 410.151C358.419 405.927 353.879 400.458 348.69 394.745C342.742 388.196 335.922 381.303 328.794 375.57C321.679 369.847 314.191 365.224 306.905 363.293C292.258 359.413 278.89 366.494 268.771 374.221C264.228 377.69 260.286 381.332 257.14 384.238C256.772 384.578 256.414 384.909 256.068 385.228C254.404 386.759 253.023 388.002 251.922 388.842C251.372 389.262 250.925 389.554 250.575 389.729C250.389 389.822 250.263 389.865 250.186 389.885C250.13 389.738 250.073 389.469 250.054 389.028C250.01 388.044 250.166 386.582 250.472 384.678C250.776 382.792 251.216 380.548 251.711 378.025L251.746 377.849C252.232 375.379 252.767 372.656 253.271 369.782C254.304 363.9 255.214 357.353 255.315 350.959C255.416 344.573 254.712 338.272 252.465 332.915ZM393.08 247.485L393.081 247.484L393.08 247.485Z" stroke="#2F2F2F" stroke-width="2"/>
<path d="M235.766 339.602L235.765 339.598C229.669 325.247 215.363 316.33 201.333 309.259C198.001 307.58 194.669 305.997 191.452 304.47L190.907 304.211C187.517 302.602 184.268 301.052 181.268 299.502C175.24 296.387 170.357 293.334 167.447 289.922L167.44 289.914C164.58 286.633 163.614 282.98 164.135 279.304C164.66 275.596 166.71 271.787 170.029 268.3C176.669 261.321 188.218 255.817 201.748 255.206C213.535 254.673 226.79 257.899 239.674 261.035C241.633 261.511 243.583 261.986 245.517 262.445C252.809 264.174 259.881 265.677 266.301 266.174C272.715 266.671 278.589 266.174 283.432 263.808C288.287 261.436 291.97 257.252 294.976 252.092C297.98 246.935 300.351 240.727 302.544 234.207C303.464 231.47 304.348 228.695 305.234 225.912C306.478 222.01 307.725 218.094 309.085 214.247C311.401 207.693 313.989 201.503 317.288 196.316C330.742 175.651 356.179 170.093 378.702 176.534C401.233 182.978 420.958 201.083 427.417 223.097L427.417 223.097L427.42 223.109C434.192 245.139 427.705 271.064 407.189 284.765C401.957 288.206 395.804 290.932 389.474 293.71L389.073 293.886C382.9 296.596 376.58 299.37 370.98 302.895C365.246 306.504 360.208 310.935 356.793 316.968C353.373 323.009 351.627 330.573 352.342 340.369C352.976 350.057 356.058 362.003 360.257 374.477C364.462 386.968 369.809 400.051 375.012 412.028C378.669 420.449 382.262 428.338 385.338 435.09C386.635 437.939 387.841 440.586 388.92 442.985C390.742 447.036 392.201 450.37 393.144 452.793C393.47 453.631 393.729 454.346 393.92 454.937C393.773 454.789 393.616 454.627 393.447 454.45C392.026 452.954 390.021 450.587 387.508 447.572C386.867 446.804 386.195 445.995 385.492 445.15C380.697 439.383 374.495 431.921 367.406 424.128C359.279 415.192 349.968 405.797 340.243 397.986C330.531 390.185 320.339 383.908 310.449 381.292C290.596 376.04 272.44 385.615 258.625 396.149C252.427 400.875 247.05 405.836 242.747 409.805C242.243 410.269 241.754 410.72 241.281 411.156C239.008 413.245 237.107 414.954 235.587 416.112C234.826 416.692 234.194 417.107 233.685 417.361C233.148 417.629 232.884 417.646 232.803 417.634C232.79 417.632 232.789 417.631 232.788 417.63C232.788 417.63 232.788 417.629 232.788 417.629C232.779 417.622 232.738 417.584 232.685 417.472C232.571 417.229 232.472 416.792 232.441 416.093C232.38 414.708 232.598 412.68 233.018 410.08C233.435 407.497 234.037 404.427 234.714 400.984L234.761 400.744C235.425 397.371 236.156 393.656 236.845 389.736C238.256 381.712 239.497 372.795 239.635 364.093C239.773 355.398 238.812 346.851 235.766 339.602ZM394.296 456.548C394.296 456.548 394.296 456.545 394.297 456.541C394.296 456.546 394.296 456.548 394.296 456.548Z" stroke="#2F2F2F" stroke-width="2"/>
<path d="M215.357 348.285L215.355 348.281C207.309 329.35 188.409 317.557 169.771 308.171C165.349 305.944 160.925 303.845 156.651 301.817L155.929 301.474C151.428 299.338 147.106 297.278 143.116 295.218C135.106 291.082 128.568 287.005 124.657 282.422L124.65 282.414C120.789 277.988 119.477 273.044 120.182 268.068C120.891 263.062 123.657 257.946 128.099 253.281C136.985 243.949 152.409 236.613 170.457 235.798C186.165 235.089 203.825 239.384 220.934 243.546C223.534 244.178 226.122 244.808 228.689 245.416C238.373 247.712 247.745 249.701 256.246 250.359C264.741 251.016 272.475 250.354 278.832 247.25C285.201 244.14 290.053 238.646 294.027 231.828C298 225.012 301.141 216.796 304.052 208.145C305.271 204.524 306.445 200.844 307.622 197.15C309.275 191.964 310.937 186.752 312.743 181.645C315.822 172.937 319.27 164.693 323.672 157.776C341.643 130.188 375.602 122.798 405.62 131.377C435.646 139.957 461.941 164.068 470.555 193.41L470.559 193.422C479.588 222.779 470.946 257.356 443.552 275.636C436.575 280.223 428.375 283.852 419.971 287.539L419.448 287.768C411.24 291.368 402.866 295.041 395.447 299.708C387.859 304.481 381.213 310.328 376.712 318.273C372.206 326.227 369.896 336.203 370.842 349.154C371.681 361.972 375.764 377.798 381.339 394.35C386.92 410.918 394.019 428.276 400.929 444.172C405.786 455.347 410.557 465.814 414.642 474.777C416.366 478.56 417.968 482.075 419.402 485.261C421.823 490.639 423.763 495.072 425.02 498.297C425.649 499.913 426.096 501.199 426.348 502.135C426.366 502.205 426.384 502.273 426.4 502.338C425.99 501.975 425.484 501.477 424.878 500.84C422.981 498.845 420.312 495.695 416.974 491.695C416.123 490.675 415.23 489.601 414.296 488.478C407.927 480.822 399.692 470.923 390.281 460.583C379.492 448.728 367.136 436.27 354.237 425.916C341.35 415.572 327.853 407.273 314.781 403.817C288.563 396.885 264.555 409.514 246.224 423.483C238.004 429.746 230.872 436.321 225.156 441.59C224.487 442.207 223.837 442.806 223.207 443.385C220.19 446.155 217.654 448.435 215.62 449.983C214.603 450.758 213.745 451.323 213.042 451.673C212.31 452.038 211.884 452.098 211.675 452.067C211.568 452.051 211.429 452.004 211.27 451.667C211.091 451.286 210.956 450.655 210.914 449.711C210.832 447.837 211.127 445.115 211.684 441.663C212.239 438.228 213.04 434.146 213.94 429.577L214.003 429.259C214.885 424.781 215.855 419.853 216.77 414.653C218.642 404.008 220.288 392.19 220.471 380.663C220.653 369.145 219.378 357.85 215.357 348.285Z" stroke="#2F2F2F" stroke-width="2"/>
<path d="M191.969 357.376L191.967 357.372C181.638 333.072 157.36 317.91 133.331 305.81C127.633 302.941 121.933 300.237 116.423 297.623L115.489 297.18C109.686 294.426 104.11 291.769 98.9606 289.111C88.6322 283.778 80.1563 278.5 75.074 272.546L75.0669 272.538C70.0342 266.77 68.3167 260.312 69.2375 253.814C70.1628 247.285 73.7661 240.637 79.5221 234.593C91.0367 222.502 110.996 213.019 134.332 211.965C154.629 211.049 177.445 216.598 199.499 221.962C202.851 222.777 206.186 223.588 209.491 224.372C221.977 227.331 234.041 229.891 244.978 230.737C255.907 231.582 265.82 230.726 273.949 226.757C282.09 222.783 288.308 215.753 293.417 206.991C298.524 198.231 302.566 187.663 306.319 176.514C307.886 171.857 309.399 167.115 310.917 162.354C313.05 155.662 315.196 148.933 317.525 142.347C321.498 131.114 325.952 120.462 331.646 111.517C354.904 75.8176 398.836 66.2803 437.626 77.3641C476.424 88.45 510.409 119.599 521.547 157.529L521.55 157.541C533.223 195.487 522.058 240.202 486.614 263.851C477.594 269.779 466.998 274.467 456.166 279.219L455.5 279.511C444.911 284.155 434.131 288.883 424.584 294.887C414.826 301.025 406.299 308.53 400.527 318.718C394.75 328.914 391.778 341.715 392.995 358.365C394.075 374.85 399.329 395.225 406.515 416.555C413.707 437.902 422.856 460.27 431.763 480.759C438.025 495.162 444.174 508.652 449.441 520.206C451.664 525.083 453.73 529.615 455.58 533.725C458.701 540.657 461.206 546.378 462.829 550.544C463.642 552.63 464.223 554.298 464.551 555.521C464.667 555.955 464.747 556.317 464.795 556.611C464.169 556.137 463.294 555.311 462.167 554.126C459.714 551.545 456.265 547.477 451.964 542.322C450.866 541.007 449.714 539.622 448.51 538.175C440.298 528.305 429.685 515.549 417.556 502.225C403.65 486.948 387.73 470.9 371.116 457.565C354.513 444.241 337.149 433.571 320.352 429.131C286.684 420.231 255.827 436.438 232.208 454.433C221.622 462.499 212.436 470.965 205.066 477.758C204.203 478.554 203.365 479.326 202.553 480.072C198.665 483.643 195.385 486.59 192.75 488.596C191.433 489.599 190.31 490.34 189.38 490.803C188.421 491.28 187.805 491.391 187.446 491.338C187.189 491.3 186.939 491.158 186.704 490.659C186.449 490.117 186.273 489.259 186.219 488.028C186.11 485.58 186.496 482.045 187.215 477.594C187.931 473.16 188.965 467.893 190.125 462.004L190.206 461.591C191.343 455.818 192.593 449.469 193.772 442.77C196.185 429.054 198.304 413.836 198.539 398.999C198.775 384.17 197.131 369.655 191.969 357.376Z" stroke="#2F2F2F" stroke-width="2"/>
<path d="M160.427 370.046L160.426 370.043C147.082 338.651 115.704 319.037 84.5547 303.352C77.1696 299.633 69.7808 296.128 62.6351 292.738L61.4333 292.168C53.9111 288.598 46.6782 285.152 39.9981 281.703C26.6081 274.789 15.5739 267.926 8.94461 260.16L8.93747 260.151C2.35788 252.611 0.104892 244.153 1.31083 235.644C2.52121 227.103 7.23014 218.431 14.7215 210.564C29.7067 194.829 55.6559 182.509 85.9722 181.141C112.329 179.951 141.952 187.156 170.536 194.108C174.88 195.165 179.201 196.216 183.483 197.231C199.668 201.067 215.287 204.38 229.438 205.475C243.583 206.569 256.371 205.457 266.841 200.345C277.323 195.228 285.345 186.169 291.951 174.839C298.556 163.511 303.788 149.835 308.651 135.387C310.679 129.36 312.639 123.216 314.607 117.045C317.375 108.364 320.16 99.6297 323.179 91.0924C328.333 76.5212 334.116 62.6875 341.516 51.0627C371.756 4.64891 428.855 -7.72444 479.227 6.66863C529.606 21.0639 573.745 61.5109 588.215 110.787L588.219 110.8C603.383 160.093 588.885 218.204 542.809 248.944C531.092 256.645 517.333 262.732 503.297 268.889L502.443 269.263C488.71 275.286 474.753 281.407 462.396 289.178C449.772 297.119 438.761 306.815 431.311 319.965C423.856 333.124 420.012 349.658 421.585 371.193C422.982 392.524 429.783 418.907 439.096 446.551C448.415 474.211 460.272 503.198 471.816 529.754C479.933 548.423 487.902 565.906 494.728 580.882C497.611 587.205 500.289 593.081 502.689 598.411C506.735 607.396 509.984 614.819 512.091 620.227C513.146 622.934 513.904 625.109 514.333 626.71C514.549 627.512 514.672 628.139 514.716 628.599C514.724 628.678 514.728 628.748 514.731 628.809C514.64 628.755 514.537 628.688 514.423 628.608C513.574 628.014 512.347 626.87 510.742 625.182C507.554 621.829 503.078 616.547 497.503 609.867C496.08 608.161 494.586 606.366 493.025 604.49C482.38 591.695 468.627 575.166 452.909 557.898C434.888 538.1 414.263 517.31 392.742 500.038C371.234 482.776 348.762 468.974 327.047 463.234C283.542 451.734 243.642 472.669 213.042 495.983C199.331 506.429 187.434 517.394 177.879 526.201C176.76 527.232 175.674 528.233 174.62 529.201C169.582 533.827 165.321 537.658 161.893 540.267C160.179 541.572 158.707 542.545 157.476 543.158C156.217 543.785 155.352 543.962 154.794 543.879C154.338 543.811 153.943 543.544 153.608 542.832C153.253 542.077 153.021 540.919 152.95 539.308C152.809 536.102 153.313 531.494 154.245 525.723C155.175 519.969 156.516 513.135 158.019 505.503L158.123 504.977C159.597 497.491 161.218 489.261 162.746 480.577C165.873 462.803 168.617 443.093 168.922 423.883C169.226 404.681 167.097 385.91 160.427 370.046Z" stroke="#2F2F2F" stroke-width="2"/>
</svg>
