<svg width="1927" height="147" viewBox="0 0 1927 147" fill="none" xmlns="http://www.w3.org/2000/svg">
<path fill-rule="evenodd" clip-rule="evenodd" d="M118.785 54.3332C124.653 49.918 126.125 42.5852 126.125 36.7156C126.125 29.3742 124.653 23.5131 120.256 17.6348C117.322 11.7738 111.462 7.36721 104.122 4.43238C96.7815 1.49754 85.0614 0.0344262 68.9268 0.0344262H0V2.96926C5.86868 2.96926 10.2745 4.43238 13.2002 5.9041C16.1346 7.36721 17.606 8.83893 17.606 10.3107C19.0689 11.7824 20.5404 17.6434 20.5404 24.9848V118.891C20.5404 127.695 19.0689 132.102 17.606 135.037C17.606 136.5 16.1346 137.972 13.2002 139.435C10.2745 140.907 5.86868 140.907 0 140.907V145.313H73.324C93.8558 145.313 109.99 140.907 120.256 132.111C129.051 124.769 133.456 115.965 133.456 104.225C133.456 93.9578 129.051 86.6164 121.719 79.2922C115.85 74.8771 105.585 71.9422 92.3929 67.5529C105.593 64.6008 114.388 60.2029 118.785 54.3332ZM52.8009 7.36721C63.0668 7.36721 71.8698 8.83893 76.267 11.7824C80.6642 13.2455 85.07 16.1803 86.5329 20.5697C89.4672 24.9848 90.9387 29.3742 90.9387 36.7156C90.9387 42.5852 89.4672 48.4549 86.5329 51.3898C83.5899 55.7963 80.6556 58.7312 76.2584 61.666C70.3897 64.6008 63.0668 64.6008 52.8009 64.6008V7.36721ZM77.7212 76.3488C83.5899 79.2836 87.9957 82.2184 90.9301 88.0795C93.8644 93.9406 95.3273 99.8189 95.3273 105.689C95.3273 111.567 93.8644 117.428 90.9301 121.834C87.9957 126.232 85.0614 130.639 80.6556 133.574C74.7955 135.037 70.3897 136.5 64.521 136.5C61.5867 136.5 58.661 136.5 55.7266 133.574C54.2551 132.102 52.7923 129.159 52.7923 124.769V73.4053C64.5296 73.4053 71.8698 74.8684 77.7212 76.3488ZM189.794 66.5201C196.575 66.5201 200.8 66.5201 202.495 67.3721C206.729 68.2242 209.267 70.7631 211.806 73.2934C214.344 75.841 216.04 80.0754 216.883 86.0053H219.421V61.4336H149.152V63.1291H152.543C155.09 63.1291 156.785 63.9812 158.472 65.668C159.323 65.668 160.167 67.3635 161.01 68.2156V130.889C161.01 135.132 161.01 137.67 160.158 138.523C160.158 140.209 159.315 141.061 157.62 141.914C156.776 142.766 154.229 142.766 152.534 142.766H149.144V145.305H221.099L225.342 118.202H222.803C221.108 125.828 217.718 131.758 212.641 135.149C208.407 138.54 201.635 140.227 194.019 140.227H188.942C186.404 140.227 184.708 140.227 183.857 139.383C183.013 138.531 182.161 137.688 182.161 136.844C181.318 135.984 181.318 133.445 181.318 128.367V104.647C185.552 104.647 188.09 105.499 190.637 106.343C192.333 107.195 194.028 109.734 195.714 112.264C197.401 115.664 198.253 119.898 199.096 124.132H201.635V80.9103H199.096C198.253 86.8402 196.558 91.918 194.019 95.3176C192.324 98.7086 188.09 100.404 183.013 100.404H181.318V66.5201H189.794ZM270.217 107.177L297.306 145.296H323.552V142.757C321.013 142.757 319.318 141.905 317.631 140.209C316.788 139.366 314.241 137.67 311.711 134.288L292.246 105.482C297.323 104.63 300.705 102.091 304.096 99.5607C308.329 96.1697 310.868 91.0918 310.868 84.3098C310.868 79.232 309.173 74.9975 305.791 71.6066C303.252 67.3721 299.019 64.8332 294.785 63.1377C289.699 62.2857 282.084 61.4422 272.773 61.4422H233.835V63.1377C237.225 63.1377 239.755 63.9898 241.45 64.8332C243.146 65.6766 243.989 66.5201 243.989 67.3721C244.832 68.2242 244.832 71.6066 244.832 75.841V130.889C244.832 135.132 244.832 137.671 243.989 139.366C243.989 140.209 243.137 141.053 241.45 141.905C239.764 142.757 237.217 142.757 233.835 142.757V145.296H276.163V142.757C272.773 142.757 270.243 142.757 268.548 141.905C266.853 141.053 266.009 140.209 266.009 139.366C265.166 137.671 264.314 135.132 264.314 130.889V107.177H270.217ZM271.061 65.668C277.833 65.668 282.91 67.3635 285.448 70.7545C288.839 73.2934 290.534 78.3799 290.534 84.3012C290.534 89.3877 289.682 92.7787 287.987 95.3176C286.292 97.8566 283.753 99.5521 281.215 101.239C277.824 102.091 273.599 102.934 268.514 102.934H264.28V65.668H271.061ZM399.741 74.1369C405.67 69.0504 409.061 65.668 410.747 64.8246C412.442 63.9725 414.981 63.9725 417.519 63.1291V61.4336H385.354V63.1291C388.744 63.9812 391.274 63.9812 392.126 64.8246C393.821 65.668 394.664 66.5115 394.664 68.2156C394.664 70.7545 392.126 73.2934 387.892 76.6758L357.413 102.091V67.3721C358.256 66.5201 359.108 65.6766 359.951 64.8332C361.646 63.9812 364.185 63.1377 366.732 63.1377V61.4336H325.247V63.1291H327.794C330.333 63.1291 332.028 63.9812 333.714 64.8246C334.558 65.668 336.253 66.5115 336.253 67.3635C337.105 69.0504 337.105 71.598 337.105 75.8324V130.88C337.105 135.123 337.105 137.662 336.253 138.514C335.41 140.201 334.558 141.053 333.714 141.905C332.019 142.757 330.324 142.757 327.794 142.757H325.247V145.296H367.575V142.757C364.185 142.757 361.646 142.757 360.795 141.905C359.108 141.053 358.256 140.209 357.413 139.366V108.03L359.951 105.482L379.425 129.21C382.806 134.288 385.345 137.671 385.345 139.375C385.345 140.218 384.493 141.061 383.65 141.914C382.798 141.914 381.111 142.766 378.573 142.766V145.305H421.745V142.766C419.206 142.766 417.511 141.914 414.972 141.07C411.582 139.383 408.2 135.984 403.966 130.062L375.182 93.6394L399.741 74.1369ZM478.478 59.7381C477.626 62.2771 476.783 63.1291 475.931 63.9725C475.931 64.8246 475.088 64.8246 473.401 64.8246C472.558 64.8246 470.862 64.8246 468.315 63.1291C464.933 62.2771 463.238 61.4336 460.7 60.5902C458.161 59.7381 455.623 59.7381 453.084 59.7381C445.469 59.7381 439.54 62.2771 434.454 66.5115C429.369 71.598 427.673 76.6758 427.673 83.4578C427.673 87.6922 428.525 91.0832 430.212 94.4656C431.907 97.8566 434.446 100.395 437.836 102.934C441.226 105.473 446.303 108.864 453.919 112.247C459.839 115.646 463.23 117.333 465.768 119.029C467.463 120.716 469.159 122.42 470.002 124.115C470.854 126.654 471.697 128.341 471.697 130.036C471.697 133.427 470.002 135.958 467.463 138.505C464.933 141.044 461.543 142.74 456.457 142.74C450.537 142.74 445.452 140.192 439.531 135.958C434.446 130.871 431.064 124.107 429.369 115.638H427.673V146.983H429.369C430.221 145.287 431.064 143.583 431.916 142.748C433.611 141.896 434.446 141.896 436.149 141.896C437.001 141.896 438.679 141.896 440.383 142.748C443.774 144.444 447.155 145.287 449.694 146.139C451.389 146.991 453.928 146.991 457.309 146.991C464.933 146.991 472.549 144.452 477.626 139.366C482.703 134.28 486.093 128.35 486.093 121.576C486.093 115.655 484.398 110.568 481.016 106.334C477.626 102.943 470.862 97.8652 460.7 92.7873C453.928 89.3877 449.694 86.8574 447.999 86.0053C444.617 84.3098 442.922 81.7709 442.078 80.084C441.235 78.3885 440.383 77.5451 440.383 74.9975C440.383 72.4586 442.078 69.9197 443.774 67.3721C446.312 65.6766 449.694 63.9812 453.936 63.9812C459.856 63.9812 464.942 66.5201 469.176 70.7545C474.253 74.9889 476.791 80.0754 478.487 87.7008H481.025L480.165 59.7381H478.478ZM554.667 104.63V138.523C553.816 140.209 552.972 141.061 552.129 141.914C550.434 142.766 548.739 142.766 546.2 142.766H543.662V145.305H586.833V142.766H584.295C581.748 142.766 580.061 142.766 578.374 141.914C577.523 141.061 576.679 140.218 575.827 138.523C574.984 137.67 574.984 135.132 574.984 130.889V75.841C574.984 71.6066 574.984 69.059 575.827 68.2156C576.679 66.5201 577.523 65.668 578.374 64.8246C580.07 63.9725 581.756 63.1291 584.295 63.1291H586.833V61.4336H543.662V63.1291H546.2C548.739 63.1291 550.434 63.9812 551.277 64.8246C552.972 65.668 553.816 66.5115 554.667 67.3635V99.5521H525.04V75.841C525.04 71.6066 525.883 69.059 525.883 68.2156C526.735 66.5201 527.579 65.668 528.422 64.8246C530.117 63.9725 531.812 63.1291 534.342 63.1291H536.881V61.4336H493.709V63.1291H496.247C498.786 63.1291 500.481 63.9812 502.176 64.8246C503.02 65.668 503.872 66.5115 504.706 67.3635C505.55 69.0504 505.55 71.598 505.55 75.8324V130.88C505.55 135.123 505.55 137.662 504.706 138.514C503.863 140.201 503.011 141.053 502.176 141.905C500.481 142.757 498.786 142.757 496.247 142.757H493.709V145.296H536.881V142.757H534.342C531.804 142.757 530.109 142.757 529.265 141.905C527.57 141.053 526.727 140.209 525.875 138.514C525.875 137.662 525.031 135.123 525.031 130.88V104.621L554.667 104.63ZM632.544 142.757C630.005 142.757 628.31 142.757 626.623 141.905C625.771 141.053 624.928 140.209 624.085 138.514C624.085 137.662 623.242 135.123 623.242 130.88V75.841C623.242 71.6066 624.085 69.059 624.085 68.2156C624.937 66.5201 625.78 65.668 626.623 64.8246C628.318 63.9725 630.005 63.1291 632.544 63.1291H635.082V61.4336H591.91V63.1291H594.449C596.987 63.1291 598.683 63.9812 600.378 64.8246L602.916 67.3635C602.916 69.0504 603.76 71.598 603.76 75.8324V130.88C603.76 135.123 602.916 137.662 602.916 138.514C602.064 140.201 601.221 141.053 600.378 141.905C598.683 142.757 596.987 142.757 594.449 142.757H591.91V145.296H635.082V142.757H632.544ZM677.411 107.177L704.499 145.296H730.745V142.757C728.206 142.757 726.511 141.905 724.825 140.209C723.973 139.366 722.286 137.67 719.748 134.288L699.431 105.482C704.508 104.63 708.742 102.091 711.28 99.5607C715.523 96.1697 718.052 91.0918 718.052 84.3098C718.052 79.232 716.357 74.9975 713.819 71.6066C710.428 67.3721 707.047 64.8332 701.97 63.1377C697.736 62.2857 690.12 61.4422 679.958 61.4422H641.02V63.1377C644.41 63.1377 647.792 63.9898 648.644 64.8332C650.33 65.6766 651.182 66.5201 652.026 67.3721C652.026 68.2242 652.877 71.6066 652.877 75.841V130.889C652.877 135.132 652.026 137.671 652.026 139.366C651.182 140.209 650.33 141.053 648.644 141.905C647.792 142.757 645.253 142.757 641.02 142.757V145.296H683.348V142.757C679.958 142.757 677.428 142.757 675.733 141.905C674.889 141.053 673.194 140.209 673.194 139.366C672.342 137.671 672.342 135.132 672.342 130.889V107.177H677.411ZM678.254 65.668C685.026 65.668 690.112 67.3635 693.494 70.7545C696.032 73.2934 697.727 78.3799 697.727 84.3012C697.727 89.3877 696.884 92.7787 695.189 95.3176C693.494 97.8566 690.955 99.5521 688.416 101.239C685.878 102.091 681.636 102.934 675.715 102.934H672.325V65.668H678.254ZM773.073 66.5201C778.994 66.5201 783.228 66.5201 785.766 67.3721C790.008 68.2242 792.547 70.7631 795.077 73.2934C796.772 75.841 798.467 80.0754 800.162 86.0053H801.858V61.4336H732.44V63.1291H734.979C737.517 63.1291 740.056 63.9812 741.751 65.668C742.594 65.668 743.446 67.3635 743.446 68.2156C744.289 69.059 744.289 71.6066 744.289 75.841V130.889C744.289 135.132 743.446 137.67 743.446 138.523C742.594 140.209 741.751 141.061 740.908 141.914C739.212 142.766 737.517 142.766 734.987 142.766H732.449V145.305H804.405L808.638 118.202H806.1C803.561 125.828 800.18 131.758 795.946 135.149C790.86 138.54 784.94 140.227 777.316 140.227H772.239C769.7 140.227 768.005 140.227 767.162 139.383C766.318 138.531 765.467 137.688 764.623 136.844C764.623 135.984 763.78 133.445 763.78 128.367V104.647C768.014 104.647 771.395 105.499 773.091 106.343C775.629 107.195 777.324 109.734 779.011 112.264C780.706 115.664 781.549 119.898 781.549 124.132H784.088V80.9103H781.549C781.549 86.8402 779.854 91.918 777.316 95.3176C774.777 98.7086 771.395 100.404 765.467 100.404H763.78V66.5201H773.073ZM965.294 74.8512V120.354C965.294 127.704 965.294 132.093 963.823 133.565C963.823 136.5 960.897 137.972 959.426 139.435C957.963 140.907 953.557 140.907 949.16 140.907H944.754V145.313H1021.04V140.907H1015.16C1012.23 140.907 1007.83 140.907 1006.37 139.435C1003.43 137.972 1001.96 136.5 1000.5 133.565V11.748C1001.96 8.80451 1003.43 7.33279 1004.9 5.86967C1007.84 4.38934 1010.77 2.92623 1015.16 2.92623H1021.04V0H944.754V2.93484H949.16C953.557 2.93484 956.491 4.39795 959.426 5.87828C962.36 7.34139 963.823 8.81312 963.823 10.2762C965.294 13.2197 965.294 17.6176 965.294 24.959V66.0553H913.956V24.9504C913.956 17.6004 913.956 13.2111 915.419 11.748C916.89 8.80451 918.353 7.33279 919.825 5.86967C922.759 4.38934 925.693 2.92623 930.091 2.92623H934.488V0H858.212V2.93484H864.072C867.007 2.93484 871.413 4.39795 872.875 5.87828C875.81 7.34139 877.281 8.81312 878.744 10.2762V133.574C877.281 136.509 875.81 137.98 874.347 139.443C871.413 140.915 868.478 140.915 864.072 140.915H858.212V145.322H934.488V140.915H930.091C925.693 140.915 922.759 140.915 919.825 139.443C918.353 137.98 915.419 136.509 915.419 133.574C913.956 132.102 913.956 127.704 913.956 120.363V74.8512H965.294ZM1091.81 131.749C1092.67 134.288 1093.5 135.975 1093.5 135.975V138.523C1093.5 140.209 1093.5 141.061 1092.66 141.914C1090.96 142.766 1089.27 142.766 1085.89 142.766H1084.19V145.305H1123.98V142.766C1121.44 142.766 1119.75 141.914 1118.06 140.218C1116.37 139.375 1113.83 135.14 1111.29 128.358L1080.81 59.7467H1079.97L1050.34 126.663C1047.79 132.584 1045.25 136.836 1042.71 139.375C1041.03 141.061 1038.48 142.766 1035.94 142.766V145.305H1063.03V142.766C1058.8 142.766 1056.26 141.914 1055.41 141.07C1053.72 140.218 1052.02 138.531 1052.02 135.984C1052.02 134.297 1052.87 131.758 1053.71 129.219L1057.94 121.585H1086.72L1091.81 131.749ZM1059.65 116.498L1072.35 88.5443L1085.05 116.498H1059.65ZM1130.76 61.4336V84.3012H1132.45C1133.3 77.5365 1135.85 73.2934 1139.23 69.9111C1141.77 67.3635 1145.99 66.5115 1151.92 66.5115H1157.85V130.88C1157.85 135.123 1157.85 137.662 1157 138.514C1156.15 140.201 1155.3 141.053 1154.46 141.905C1152.76 142.757 1151.07 142.757 1148.54 142.757H1145.99V145.296H1189.17V142.757H1186.63C1184.94 142.757 1182.4 142.757 1181.55 141.905C1179.86 141.053 1179.01 140.209 1179.01 138.514C1178.17 137.662 1178.17 135.123 1178.17 130.88V66.5201H1184.09C1188.31 66.5201 1190.85 66.5201 1192.55 67.3721C1195.08 69.059 1197.62 70.7631 1199.32 72.4586C1200.16 74.9975 1201.86 79.232 1203.54 84.3098H1205.24V61.4336H1130.76ZM1274.67 104.63V130.889C1274.67 135.132 1273.82 137.67 1273.82 138.523C1272.97 140.209 1272.13 141.061 1271.28 141.914C1269.59 142.766 1267.89 142.766 1265.36 142.766H1262.82V145.305H1306V142.766H1303.46C1300.92 142.766 1299.22 142.766 1297.54 141.914C1296.69 141.061 1295.84 140.218 1295 138.523C1295 137.67 1294.15 135.132 1294.15 130.889V75.841C1294.15 71.6066 1295 69.059 1295 68.2156C1295.84 66.5201 1296.69 65.668 1297.54 64.8246C1299.22 63.9725 1300.93 63.1291 1303.46 63.1291H1306V61.4336H1262.82V63.1291H1265.36C1267.9 63.1291 1269.59 63.9812 1271.28 64.8246L1273.82 67.3635C1273.82 69.0504 1274.67 71.598 1274.67 75.8324V99.5521H1245.05V68.2156C1245.9 66.5201 1246.74 65.668 1247.58 64.8246C1249.28 63.9725 1250.97 63.1291 1253.5 63.1291H1256.05V61.4336H1212.87V63.1291H1215.41C1217.95 63.1291 1219.64 63.9812 1221.33 64.8246C1222.18 65.668 1223.03 66.5115 1223.87 67.3635C1224.72 69.0504 1224.72 71.598 1224.72 75.8324V130.88C1224.72 135.123 1224.72 137.662 1223.87 138.514C1223.03 140.201 1222.18 141.053 1221.33 141.905C1219.64 142.757 1217.94 142.757 1215.41 142.757H1212.87V145.296H1256.05V142.757H1253.5C1250.97 142.757 1249.28 142.757 1248.42 141.905C1246.74 141.053 1245.89 140.209 1245.04 138.514V104.621L1274.67 104.63ZM1365.26 131.749C1366.11 134.288 1366.95 135.975 1366.95 135.975C1367.8 136.836 1367.8 137.67 1367.8 138.523C1367.8 140.209 1366.95 141.061 1366.11 141.914C1365.26 142.766 1362.72 142.766 1359.34 142.766H1357.64V145.305H1398.29V142.766C1395.75 142.766 1394.05 141.914 1392.37 140.218C1390.67 139.375 1388.13 135.14 1385.58 128.358L1355.11 59.7467H1354.26L1323.79 126.663C1321.25 132.584 1318.71 136.836 1317.01 139.375C1315.33 141.061 1312.79 142.766 1309.39 142.766V145.305H1337.33V142.766C1333.1 142.766 1330.56 141.914 1328.87 141.07C1327.18 140.218 1326.33 138.531 1326.33 135.984C1326.33 134.297 1327.18 131.758 1328.02 129.219L1331.41 121.585H1361.03L1365.26 131.749ZM1333.94 116.498L1346.63 88.5443L1358.49 116.498H1333.94ZM1503.25 61.4336V63.1291C1506.64 63.9812 1508.33 63.9812 1510.01 64.8246C1510.87 65.668 1511.71 67.3635 1511.71 69.0504C1511.71 70.7459 1510.86 71.598 1510.86 73.2848C1510.86 74.1369 1510.01 76.6758 1508.32 80.9103L1494.77 116.498L1479.53 76.6758C1477.84 71.598 1477 69.0504 1477 68.2156C1477 67.3635 1477 66.5201 1477.84 65.668C1477.84 64.8246 1478.69 64.8246 1479.53 63.9812C1480.38 63.9812 1482.93 63.1291 1485.46 63.1291V61.4336H1445.67V63.1291C1448.2 63.1291 1449.9 63.9812 1451.59 64.8246C1452.44 65.668 1454.12 66.5115 1454.98 68.2156C1455.83 69.9111 1457.51 73.2934 1459.21 77.5365L1462.6 86.8488L1449.06 118.194L1432.97 77.5365C1431.29 72.45 1429.58 69.059 1429.58 68.2156C1429.58 66.5201 1430.43 65.668 1431.28 64.8246C1432.12 63.9725 1433.82 63.9725 1437.2 63.1291V61.4336H1400.8V63.1291C1403.34 63.9812 1405.03 64.8246 1406.72 65.668C1407.57 67.3635 1409.26 71.598 1412.64 78.3799L1439.73 147H1442.27L1465.12 92.7873L1485.44 147H1487.99L1514.22 77.5451C1516.76 71.6152 1517.61 69.0676 1517.61 68.2242C1518.46 66.5287 1520.15 65.6766 1521 64.8332C1521.85 63.9812 1523.54 63.9812 1525.24 63.1377V61.4336H1503.25ZM1582.82 131.749C1583.67 134.288 1584.52 135.975 1584.52 135.975C1585.36 136.836 1585.36 137.67 1585.36 138.523C1585.36 140.209 1584.52 141.061 1583.67 141.914C1582.83 142.766 1580.28 142.766 1576.9 142.766H1575.21V145.305H1615.85V142.766C1613.31 142.766 1610.77 141.914 1609.93 140.218C1608.23 139.375 1605.69 135.14 1603.16 128.358L1572.68 59.7467H1571.83L1541.35 126.663C1538.82 132.584 1536.28 136.836 1534.58 139.375C1532.9 141.061 1530.35 142.766 1526.97 142.766V145.305H1554.9V142.766C1550.66 142.766 1548.13 141.914 1546.43 141.07C1544.74 140.218 1543.89 138.531 1543.89 135.984C1543.89 134.297 1544.74 131.758 1545.59 129.219L1548.97 121.585H1578.6L1582.82 131.749ZM1551.5 116.498L1564.2 88.5443L1576.05 116.498H1551.5ZM1681.88 61.4336V63.1291C1685.27 63.9812 1687.8 64.8246 1689.49 65.668C1690.34 66.5201 1691.19 67.3635 1691.19 68.2156C1691.19 69.9111 1688.65 74.1369 1685.27 80.9189L1670.03 105.482L1654.79 78.3799C1651.4 72.4586 1649.71 68.2156 1649.71 66.5201C1649.71 65.668 1650.55 65.668 1651.4 64.8332C1652.25 63.9812 1653.93 63.1377 1656.47 63.1377H1658.17V61.4336H1618.38V63.1291C1620.92 63.1291 1623.46 63.9812 1625.15 65.668C1626 66.5201 1629.38 70.7545 1632.77 78.3799L1653.08 113.959V130.897C1653.08 135.14 1652.24 137.679 1652.24 138.531C1651.39 140.218 1650.54 141.07 1649.7 141.922C1648.01 142.774 1646.31 142.774 1643.77 142.774H1639.55V145.313H1686.1V142.774H1681.88C1679.34 142.774 1677.64 142.774 1675.95 141.922C1675.09 141.07 1674.26 140.227 1673.41 138.531C1673.41 137.679 1672.56 135.14 1672.56 130.897V110.577L1691.19 80.084C1695.41 72.4586 1698.8 67.3721 1700.5 65.6766C1702.18 64.8332 1704.72 63.9898 1707.27 63.1377V61.4336H1681.88ZM1778.24 144.057C1777.07 144.057 1775.9 144.057 1774.73 143.471C1773.55 142.886 1772.98 142.292 1772.98 141.13C1772.39 140.545 1772.39 138.789 1772.39 135.855V97.7619C1772.39 94.8271 1772.39 93.0713 1772.98 92.4947C1772.98 91.3156 1773.55 90.7303 1774.73 90.1537C1775.32 89.5685 1777.07 88.9746 1778.24 88.9746H1780.58V87.8041H1750.12V88.9746H1752.46C1753.64 88.9746 1755.4 89.5598 1755.98 90.1537C1757.15 90.7303 1757.74 91.3242 1757.74 91.9094C1758.32 93.0799 1758.32 94.8357 1758.32 97.7705V135.863C1758.32 138.798 1758.32 140.554 1757.74 141.139C1757.74 142.309 1757.15 142.895 1755.98 143.48C1755.4 144.065 1753.64 144.065 1752.46 144.065H1750.12V145.821H1780.58V144.065L1778.24 144.057ZM1784.1 87.7955V88.966C1785.86 89.5512 1787.03 89.5512 1787.61 90.1451C1788.78 90.7217 1789.96 91.9008 1791.13 93.0713L1792.3 94.8271V135.855C1792.3 138.789 1791.72 141.13 1790.55 142.301C1789.37 143.48 1787.03 144.065 1783.52 144.065V145.821H1804.6V144.065H1802.85C1801.09 144.065 1799.33 143.48 1797.58 142.301C1796.4 141.13 1795.24 138.789 1795.24 135.855V98.941L1834.49 146.991H1836.24V98.941C1836.24 96.0062 1836.24 94.2504 1836.83 93.0713C1837.4 91.9008 1838 90.7303 1838.58 90.7303C1839.75 90.1537 1840.92 89.5598 1843.85 88.9746V87.8041H1824.52V88.9746C1827.45 88.9746 1829.79 90.1537 1831.55 91.9094C1832.13 93.0799 1832.72 95.4209 1832.72 98.941V123.547L1804.6 87.8041L1784.1 87.7955ZM1902.42 86.6164C1902.42 87.7955 1901.83 88.9574 1901.24 89.5512C1900.07 90.1365 1899.48 90.7217 1898.9 90.7217C1897.73 90.7217 1896.56 90.1451 1893.63 88.966C1888.94 87.2102 1884.84 86.625 1880.75 86.625C1875.48 86.625 1870.2 87.8041 1865.52 90.7303C1860.24 93.0713 1856.73 97.1766 1853.81 101.867C1850.87 107.143 1849.12 112.419 1849.12 117.695C1849.12 122.962 1850.87 127.652 1853.22 132.343C1855.57 137.034 1859.67 140.545 1864.35 143.48C1869.04 145.821 1874.3 146.991 1880.75 146.991C1885.44 146.991 1889.53 146.415 1893.05 144.65C1896.56 142.895 1900.07 140.545 1903 137.034V132.343C1899.49 136.448 1896.56 138.789 1893.63 140.545C1890.7 142.301 1887.18 142.886 1883.67 142.886C1878.99 142.886 1875.48 141.716 1872.55 139.96C1870.21 137.619 1867.87 134.09 1866.69 129.993C1865.52 125.888 1864.93 121.206 1864.93 115.93C1864.93 110.655 1865.52 105.964 1867.27 101.273C1869.03 98.3471 1870.78 95.4123 1873.71 93.0713C1877.23 91.3156 1880.15 90.1451 1883.66 90.1451C1888.35 90.1451 1891.87 91.9008 1895.38 94.2504C1898.89 97.1766 1901.24 101.273 1902.41 106.558H1904.16V86.6336H1902.42V86.6164ZM1914.7 134.675C1913.53 135.846 1912.95 137.61 1912.95 139.951C1912.95 141.707 1913.53 143.463 1914.7 144.633C1916.46 145.812 1917.64 146.974 1919.97 146.974C1921.73 146.974 1923.49 145.804 1924.66 144.633C1926.41 143.463 1927 141.707 1927 139.951C1927 137.61 1926.41 135.837 1924.66 134.675C1923.49 133.505 1921.73 132.334 1919.97 132.334C1917.64 132.334 1916.46 133.514 1914.7 134.675Z" fill="white"/>
</svg>
