<svg width="1189" height="335" viewBox="0 0 1189 335" fill="none" xmlns="http://www.w3.org/2000/svg">
<path d="M167.465 335C259.953 335 334.93 260.008 334.93 167.5C334.93 74.9923 259.953 0 167.465 0C74.9765 0 0 74.9923 0 167.5C0 260.008 74.9765 335 167.465 335Z" fill="white"/>
<path fill-rule="evenodd" clip-rule="evenodd" d="M203.423 96.3613C226.647 104.882 243.375 117.506 239.54 141.731C236.638 159.366 227.397 167.984 214.909 171.026C231.527 180.327 239.525 194.446 230.969 219.211C220.328 250.27 196.512 253.087 164.965 247.071L156.844 279.851L138.514 275.308L146.635 242.528C144.641 241.997 142.539 241.508 140.383 241.006C137.503 240.336 134.526 239.642 131.58 238.796L123.459 271.578L105.163 267.044L113.284 234.262L76.8375 224.336L85.8965 201.157C85.8965 201.157 99.6531 204.941 99.4397 204.703C104.542 205.945 107.037 202.38 108.059 199.884L121.065 147.333L130.53 109.983C130.939 105.945 129.674 100.664 122.219 98.6542C122.727 98.3569 108.799 95.3283 108.799 95.3283L114.226 73.362L151.79 82.6713L159.744 50.5621L178.668 55.2521L170.714 87.3613C174.393 88.1615 177.988 89.0913 181.622 90.0314L181.624 90.0318C182.816 90.3403 184.014 90.6498 185.219 90.9564L193.174 58.847L211.587 63.4102L203.423 96.3613ZM153.208 147.992C153.494 148.078 153.801 148.17 154.126 148.267C165.13 151.575 197.759 161.38 203.255 139.548C208.373 118.795 180.105 112.456 166.97 109.511C165.419 109.163 164.079 108.862 163.03 108.591L153.208 147.992ZM138.728 212.725C138.15 212.552 137.617 212.395 137.133 212.253L146.955 172.852C148.116 173.153 149.583 173.498 151.281 173.897C166.764 177.535 201.348 185.662 195.972 206.531C190.756 228.2 152.285 216.758 138.728 212.725Z" fill="black"/>
<path d="M447.198 122.409C455.772 122.409 463.186 123.928 469.437 126.965C475.689 130.002 480.87 134.112 484.978 139.293C489.086 144.474 492.124 150.549 494.088 157.517C496.052 164.485 497.035 171.989 497.035 180.029C497.035 192.357 494.713 204.06 490.069 215.137C485.603 226.036 479.44 235.594 471.581 243.813C463.722 251.853 454.432 258.285 443.715 263.109C432.997 267.754 421.387 270.077 408.882 270.077C407.274 270.077 404.416 269.988 400.308 269.809C396.377 269.809 391.822 269.452 386.643 268.737C381.463 268.022 375.925 266.95 370.03 265.521C364.315 264.092 358.865 262.126 353.686 259.625L400.04 64.789L441.571 58.357L424.959 127.501C428.531 125.893 432.104 124.642 435.676 123.749C439.248 122.856 443.09 122.409 447.198 122.409ZM412.365 237.113C418.617 237.113 424.512 235.594 430.05 232.557C435.588 229.52 440.32 225.5 444.251 220.497C448.359 215.316 451.574 209.509 453.897 203.077C456.219 196.645 457.38 189.945 457.38 182.977C457.38 174.401 455.951 167.701 453.093 162.877C450.234 158.053 444.966 155.641 437.284 155.641C434.784 155.641 431.478 156.088 427.37 156.981C423.44 157.874 419.868 159.75 416.652 162.609L398.968 236.041C400.04 236.22 400.932 236.398 401.648 236.577C402.54 236.756 403.434 236.934 404.327 237.113C405.22 237.113 406.291 237.113 407.542 237.113C408.793 237.113 410.401 237.113 412.365 237.113ZM547.461 266.325H507.805L541.298 125.357H581.222L547.461 266.325ZM566.753 108.205C561.216 108.205 556.214 106.597 551.748 103.381C547.283 99.9863 545.049 94.8943 545.049 88.105C545.049 84.353 545.764 80.869 547.193 77.653C548.801 74.2583 550.855 71.3997 553.356 69.077C555.858 66.5757 558.714 64.6103 561.93 63.181C565.324 61.7517 568.896 61.037 572.648 61.037C578.186 61.037 583.188 62.7343 587.652 66.129C592.119 69.345 594.351 74.3477 594.351 81.137C594.351 84.889 593.547 88.4623 591.939 91.857C590.511 95.073 588.547 97.9317 586.045 100.433C583.544 102.756 580.597 104.632 577.203 106.061C573.987 107.49 570.504 108.205 566.753 108.205ZM622.004 90.249L663.536 83.817L653.354 125.357H697.833L689.794 158.053H645.583L633.794 207.365C632.722 211.474 632.007 215.316 631.65 218.889C631.471 222.462 631.918 225.589 632.99 228.269C634.239 230.77 636.294 232.736 639.153 234.165C642.01 235.594 645.94 236.309 650.942 236.309C655.229 236.309 659.337 235.952 663.268 235.237C667.376 234.344 671.484 233.182 675.593 231.753L678.541 262.305C673.182 264.27 667.376 265.968 661.124 267.397C654.871 268.826 647.459 269.541 638.885 269.541C626.559 269.541 617.002 267.754 610.215 264.181C603.426 260.429 598.603 255.426 595.746 249.173C592.887 242.741 591.636 235.416 591.995 227.197C592.351 218.978 593.602 210.313 595.746 201.201L622.004 90.249ZM699.271 210.045C699.271 197.896 701.235 186.461 705.166 175.741C709.095 165.021 714.721 155.641 722.046 147.601C729.369 139.561 738.212 133.218 748.573 128.573C759.111 123.928 770.812 121.605 783.673 121.605C791.712 121.605 798.856 122.409 805.109 124.017C811.539 125.446 817.344 127.412 822.525 129.913L808.86 161.001C805.286 159.572 801.535 158.321 797.606 157.249C793.855 155.998 789.21 155.373 783.673 155.373C770.276 155.373 759.736 159.929 752.056 169.041C744.374 177.974 740.534 190.213 740.534 205.757C740.534 214.869 742.499 222.284 746.429 228.001C750.358 233.54 757.592 236.309 768.133 236.309C773.312 236.309 778.314 235.773 783.137 234.701C787.96 233.629 792.247 232.289 795.999 230.681L798.946 262.573C793.944 264.538 788.406 266.236 782.334 267.665C776.439 269.273 769.204 270.077 760.63 270.077C749.554 270.077 740.176 268.469 732.496 265.253C724.814 262.037 718.473 257.749 713.472 252.389C708.47 246.85 704.807 240.418 702.486 233.093C700.343 225.768 699.271 218.085 699.271 210.045ZM876.938 270.077C867.471 270.077 859.253 268.648 852.287 265.789C845.32 262.93 839.514 258.91 834.871 253.729C830.404 248.548 827.011 242.473 824.689 235.505C822.366 228.358 821.205 220.497 821.205 211.921C821.205 201.201 822.902 190.481 826.296 179.761C829.868 169.041 835.05 159.393 841.837 150.817C848.624 142.241 856.931 135.273 866.756 129.913C876.581 124.374 887.835 121.605 900.517 121.605C909.806 121.605 917.933 123.034 924.9 125.893C932.045 128.752 937.85 132.772 942.316 137.953C946.96 143.134 950.443 149.298 952.766 156.445C955.089 163.413 956.249 171.185 956.249 179.761C956.249 190.481 954.553 201.201 951.158 211.921C947.764 222.641 942.763 232.289 936.153 240.865C929.543 249.441 921.237 256.498 911.235 262.037C901.409 267.397 889.978 270.077 876.938 270.077ZM896.766 155.373C890.871 155.373 885.691 157.07 881.225 160.465C876.759 163.86 873.007 168.148 869.971 173.329C866.935 178.51 864.612 184.228 863.005 190.481C861.576 196.556 860.861 202.362 860.861 207.901C860.861 217.013 862.29 224.07 865.148 229.073C868.007 233.897 873.187 236.309 880.689 236.309C886.584 236.309 891.763 234.612 896.23 231.217C900.696 227.822 904.447 223.534 907.483 218.353C910.52 213.172 912.753 207.544 914.182 201.469C915.79 195.216 916.593 189.32 916.593 183.781C916.593 174.669 915.165 167.701 912.306 162.877C909.448 157.874 904.268 155.373 896.766 155.373ZM1006.68 266.325H967.025L1000.52 125.357H1040.44L1006.68 266.325ZM1025.97 108.205C1020.43 108.205 1015.43 106.597 1010.97 103.381C1006.5 99.9863 1004.27 94.8943 1004.27 88.105C1004.27 84.353 1004.98 80.869 1006.41 77.653C1008.02 74.2583 1010.08 71.3997 1012.58 69.077C1015.08 66.5757 1017.93 64.6103 1021.15 63.181C1024.54 61.7517 1028.12 61.037 1031.87 61.037C1037.41 61.037 1042.41 62.7343 1046.87 66.129C1051.34 69.345 1053.57 74.3477 1053.57 81.137C1053.57 84.889 1052.77 88.4623 1051.16 91.857C1049.73 95.073 1047.77 97.9317 1045.26 100.433C1042.76 102.756 1039.82 104.632 1036.42 106.061C1033.21 107.49 1029.72 108.205 1025.97 108.205ZM1075.33 131.789C1078.37 130.896 1081.67 129.913 1085.24 128.841C1089 127.59 1093.1 126.518 1097.57 125.625C1102.21 124.553 1107.3 123.749 1112.84 123.213C1118.56 122.498 1124.99 122.141 1132.13 122.141C1153.21 122.141 1167.68 128.216 1175.54 140.365C1183.4 152.514 1184.74 169.13 1179.56 190.213L1161.34 266.325H1121.42L1139.1 191.821C1140.17 187.176 1140.98 182.709 1141.51 178.421C1142.23 173.954 1142.23 170.113 1141.51 166.897C1140.8 163.502 1139.1 160.822 1136.42 158.857C1133.92 156.713 1129.99 155.641 1124.63 155.641C1119.45 155.641 1114.18 156.177 1108.82 157.249L1082.83 266.325H1042.91L1075.33 131.789Z" fill="white"/>
</svg>
