<svg width="992" height="178" viewBox="0 0 992 178" fill="none" xmlns="http://www.w3.org/2000/svg">
<path d="M200.106 49.446C164.088 49.446 135.945 76.788 135.945 113.391C135.945 149.994 163.377 177.102 200.106 177.102C236.835 177.102 264.744 149.526 264.744 113.157C264.744 77.022 237.312 49.446 200.106 49.446ZM200.349 150.723C179.838 150.723 164.808 134.793 164.808 113.4C164.808 91.764 179.595 75.843 200.106 75.843C220.86 75.843 235.881 92.007 235.881 113.4C235.881 134.793 220.86 150.723 200.349 150.723ZM272.61 77.265H290.502V174.735H319.122V51.822H272.61V77.265ZM63.918 75.834C78.948 75.834 90.873 85.104 95.4 98.892H125.694C120.204 69.417 95.877 49.446 64.161 49.446C28.143 49.446 0 76.788 0 113.4C0 150.012 27.432 177.111 64.161 177.111C95.166 177.111 119.97 157.14 125.46 127.422H95.4C91.107 141.21 79.182 150.723 64.152 150.723C43.398 150.723 28.854 134.793 28.854 113.4C28.863 91.764 43.173 75.834 63.918 75.834ZM816.408 101.511L795.42 98.424C785.403 97.002 778.248 93.672 778.248 85.824C778.248 77.265 787.554 72.99 800.19 72.99C814.023 72.99 822.852 78.93 824.76 88.677H852.426C849.321 63.954 830.241 49.455 800.91 49.455C770.616 49.455 750.582 64.908 750.582 86.778C750.582 107.694 763.704 119.826 790.173 123.624L811.161 126.711C821.421 128.133 827.145 132.183 827.145 139.788C827.145 149.535 817.128 153.576 803.295 153.576C786.357 153.576 776.817 146.682 775.386 136.224H747.243C749.871 160.236 768.708 177.111 803.052 177.111C834.3 177.111 855.045 162.846 855.045 138.357C855.045 116.487 840.024 105.075 816.408 101.511ZM304.812 1.188C294.318 1.188 286.443 8.793 286.443 19.251C286.443 29.709 294.309 37.314 304.812 37.314C315.306 37.314 323.181 29.709 323.181 19.251C323.181 8.793 315.306 1.188 304.812 1.188ZM724.824 93.906C724.824 67.284 708.606 49.455 674.262 49.455C641.826 49.455 623.7 65.862 620.118 91.062H648.504C649.935 81.315 657.567 73.233 673.785 73.233C688.338 73.233 695.493 79.65 695.493 87.498C695.493 97.722 682.371 100.332 666.153 101.997C644.211 104.373 617.022 111.978 617.022 140.508C617.022 162.621 633.483 176.877 659.718 176.877C680.229 176.877 693.108 168.318 699.552 154.764C700.506 166.887 709.569 174.735 722.214 174.735H738.909V149.301H724.833V93.906H724.824ZM696.681 124.812C696.681 141.219 682.371 153.342 664.956 153.342C654.219 153.342 645.156 148.824 645.156 139.32C645.156 127.197 659.709 123.867 673.065 122.445C685.944 121.257 693.099 118.404 696.681 112.932V124.812ZM544.752 49.446C528.768 49.446 515.412 56.106 505.872 67.275V0H477.252V174.735H505.395V158.571C514.935 170.217 528.534 177.111 544.752 177.111C579.096 177.111 605.097 150.012 605.097 113.4C605.097 76.788 578.619 49.446 544.752 49.446ZM540.459 150.723C519.948 150.723 504.918 134.793 504.918 113.4C504.918 92.007 520.182 75.843 540.693 75.843C561.447 75.843 575.991 91.773 575.991 113.4C575.991 134.793 560.97 150.723 540.459 150.723ZM408.798 49.446C390.195 49.446 378.027 57.051 370.872 67.752V51.822H342.486V174.726H371.106V107.928C371.106 89.145 383.031 75.834 400.68 75.834C417.141 75.834 427.392 87.48 427.392 104.364V174.735H456.012V102.231C456.021 71.316 440.046 49.446 408.798 49.446ZM991.476 109.359C991.476 74.178 965.718 49.455 931.131 49.455C894.402 49.455 867.447 77.031 867.447 113.4C867.447 151.677 896.31 177.111 931.608 177.111C961.425 177.111 984.798 159.516 990.756 134.559H960.939C956.646 145.494 946.152 151.677 932.076 151.677C913.707 151.677 899.874 140.265 896.778 120.294H991.467V109.359H991.476ZM898.452 99.846C902.988 82.728 915.867 74.412 930.654 74.412C946.872 74.412 959.274 83.682 962.136 99.846H898.452Z" fill="white"/>
</svg>
