<svg width="976" height="251" viewBox="0 0 976 251" fill="none" xmlns="http://www.w3.org/2000/svg">
<g clip-path="url(#clip0_52_10)">
<path opacity="0.45" d="M121.183 0L80.7681 71.7187H0L40.384 0H121.183Z" fill="black"/>
<path opacity="0.6" d="M80.7681 71.7187H161.567L121.183 0H40.384L80.7681 71.7187Z" fill="#E0E0E0"/>
<path opacity="0.8" d="M40.384 143.407L80.7681 71.7187L40.384 0L0 71.7187L40.384 143.407Z" fill="white"/>
<path opacity="0.45" d="M40.786 251L81.201 179.281H162L121.585 251H40.786Z" fill="black"/>
<path opacity="0.6" d="M81.201 179.281H0.401978L40.786 251H121.585L81.201 179.281Z" fill="#E0E0E0"/>
<path opacity="0.8" d="M121.585 107.594L81.2009 179.281L121.585 251L162 179.281L121.585 107.594Z" fill="white"/>
</g>
<path d="M288.705 102.523C288.326 98.3561 286.64 95.1174 283.648 92.8068C280.693 90.4583 276.47 89.2841 270.977 89.2841C267.341 89.2841 264.311 89.7576 261.886 90.7045C259.462 91.6515 257.644 92.9583 256.432 94.625C255.22 96.2538 254.595 98.1288 254.557 100.25C254.481 101.992 254.822 103.527 255.58 104.852C256.375 106.178 257.511 107.352 258.989 108.375C260.504 109.36 262.322 110.231 264.443 110.989C266.564 111.746 268.951 112.409 271.602 112.977L281.602 115.25C287.36 116.5 292.436 118.167 296.83 120.25C301.261 122.333 304.973 124.814 307.966 127.693C310.996 130.572 313.288 133.886 314.841 137.636C316.394 141.386 317.189 145.591 317.227 150.25C317.189 157.598 315.333 163.905 311.659 169.17C307.985 174.436 302.701 178.47 295.807 181.273C288.951 184.076 280.674 185.477 270.977 185.477C261.242 185.477 252.758 184.019 245.523 181.102C238.288 178.186 232.663 173.754 228.648 167.807C224.633 161.86 222.568 154.341 222.455 145.25H249.386C249.614 149 250.617 152.125 252.398 154.625C254.178 157.125 256.621 159.019 259.727 160.307C262.871 161.595 266.508 162.239 270.636 162.239C274.424 162.239 277.644 161.727 280.295 160.705C282.985 159.682 285.049 158.261 286.489 156.443C287.928 154.625 288.667 152.542 288.705 150.193C288.667 147.996 287.985 146.121 286.659 144.568C285.333 142.977 283.288 141.614 280.523 140.477C277.795 139.303 274.311 138.223 270.068 137.239L257.909 134.398C247.833 132.087 239.898 128.356 234.102 123.205C228.307 118.015 225.428 111.008 225.466 102.182C225.428 94.9848 227.36 88.678 231.261 83.2614C235.163 77.8447 240.561 73.6212 247.455 70.5909C254.348 67.5606 262.208 66.0455 271.034 66.0455C280.049 66.0455 287.871 67.5795 294.5 70.6477C301.167 73.678 306.337 77.9394 310.011 83.4318C313.686 88.9242 315.561 95.2879 315.636 102.523H288.705ZM441.261 125.818C441.261 138.621 438.799 149.473 433.875 158.375C428.951 167.277 422.284 174.038 413.875 178.659C405.504 183.28 396.11 185.591 385.693 185.591C375.239 185.591 365.826 183.261 357.455 178.602C349.083 173.943 342.436 167.182 337.511 158.318C332.625 149.417 330.182 138.583 330.182 125.818C330.182 113.015 332.625 102.163 337.511 93.2614C342.436 84.3598 349.083 77.5985 357.455 72.9773C365.826 68.3561 375.239 66.0455 385.693 66.0455C396.11 66.0455 405.504 68.3561 413.875 72.9773C422.284 77.5985 428.951 84.3598 433.875 93.2614C438.799 102.163 441.261 113.015 441.261 125.818ZM412.511 125.818C412.511 118.242 411.432 111.841 409.273 106.614C407.152 101.386 404.083 97.428 400.068 94.7386C396.091 92.0492 391.299 90.7045 385.693 90.7045C380.125 90.7045 375.333 92.0492 371.318 94.7386C367.303 97.428 364.216 101.386 362.057 106.614C359.936 111.841 358.875 118.242 358.875 125.818C358.875 133.394 359.936 139.795 362.057 145.023C364.216 150.25 367.303 154.208 371.318 156.898C375.333 159.587 380.125 160.932 385.693 160.932C391.299 160.932 396.091 159.587 400.068 156.898C404.083 154.208 407.152 150.25 409.273 145.023C411.432 139.795 412.511 133.394 412.511 125.818ZM457.682 184V67.6364H485.807V161.159H534.216V184H457.682ZM576.901 67.6364V184H548.776V67.6364H576.901ZM637.568 184H594.557V67.6364H637.511C649.367 67.6364 659.576 69.9659 668.136 74.625C676.735 79.2462 683.364 85.9129 688.023 94.625C692.682 103.299 695.011 113.678 695.011 125.761C695.011 137.883 692.682 148.299 688.023 157.011C683.402 165.723 676.792 172.409 668.193 177.068C659.595 181.689 649.386 184 637.568 184ZM622.682 160.023H636.489C643.004 160.023 648.515 158.924 653.023 156.727C657.568 154.492 660.996 150.875 663.307 145.875C665.655 140.837 666.83 134.133 666.83 125.761C666.83 117.39 665.655 110.723 663.307 105.761C660.958 100.761 657.492 97.1629 652.909 94.9659C648.364 92.7311 642.758 91.6136 636.091 91.6136H622.682V160.023ZM739.557 67.6364V184H711.432V67.6364H739.557ZM753.406 90.4773V67.6364H851.759V90.4773H816.474V184H788.747V90.4773H753.406ZM859.699 67.6364H891.119L915.722 116.33H916.744L941.347 67.6364H972.767L930.21 145.136V184H902.256V145.136L859.699 67.6364Z" fill="white"/>
<defs>
<clipPath id="clip0_52_10">
<rect width="162" height="251" fill="white"/>
</clipPath>
</defs>
</svg>
