<svg xmlns="http://www.w3.org/2000/svg" width="196" height="18" viewBox="0 0 196 18" fill="none"><path d="M5.10303 4.89344H0V0.393442H16.0808V4.89344H10.9777V17.6066H5.10303V4.89344Z" fill="white"></path><path d="M32.0943 13.2295V17.6066H17.6066V0.393442H31.7707V4.77049H23.3818V6.78688H30.75V10.9672H23.3818V13.2295H32.0943Z" fill="white"></path><path d="M41.8237 13.2787H40.2305V17.6066H34.3558V0.393442H42.7447C44.3544 0.393442 45.7567 0.655737 46.9516 1.18033C48.1464 1.70492 49.0675 2.45902 49.7147 3.44262C50.3619 4.42623 50.6855 5.57377 50.6855 6.88524C50.6855 8.11475 50.4034 9.18852 49.8392 10.1066C49.2749 11.0246 48.4618 11.7541 47.3997 12.2951L51.0589 17.6066H44.7859L41.8237 13.2787ZM44.761 6.88524C44.761 6.2459 44.5619 5.7541 44.1636 5.40984C43.7653 5.04918 43.1679 4.86885 42.3713 4.86885H40.2305V8.90164H42.3713C43.1679 8.90164 43.7653 8.72951 44.1636 8.38525C44.5619 8.02459 44.761 7.52459 44.761 6.88524Z" fill="white"></path><path d="M70.08 0.393442V17.6066H65.2507L58.6293 9.78688V17.6066H52.9039V0.393442H57.7331L64.3546 8.21311V0.393442H70.08Z" fill="white"></path><path d="M84.7844 14.6066H78.1629L76.993 17.6066H71.0187L78.6359 0.393442H84.411L92.0283 17.6066H85.9544L84.7844 14.6066ZM83.1664 10.4262L81.4737 6.09836L79.781 10.4262H83.1664Z" fill="white"></path><path d="M100.06 11.9016L98.7409 13.3525V17.6066H92.9658V0.393442H98.7409V6.63934L104.466 0.393442H110.864L103.894 7.96721L111.212 17.6066H104.417L100.06 11.9016Z" fill="white"></path><path d="M120.096 18C117.424 18 115.342 17.2869 113.848 15.8607C112.354 14.4344 111.608 12.4344 111.608 9.86066V0.393442H117.482V9.68852C117.482 10.9508 117.706 11.8689 118.154 12.4426C118.619 13.0164 119.283 13.3033 120.146 13.3033C121.009 13.3033 121.664 13.0164 122.112 12.4426C122.577 11.8689 122.809 10.9508 122.809 9.68852V0.393442H128.585V9.86066C128.585 12.4344 127.838 14.4344 126.344 15.8607C124.851 17.2869 122.768 18 120.096 18Z" fill="white"></path><path d="M142.787 14.6066H136.165L134.995 17.6066H129.021L136.638 0.393442H142.413L150.031 17.6066H143.957L142.787 14.6066ZM141.169 10.4262L139.476 6.09836L137.783 10.4262H141.169Z" fill="white"></path><path d="M168.144 0.393442V17.6066H163.315L156.693 9.78688V17.6066H150.968V0.393442H155.797L162.419 8.21311V0.393442H168.144Z" fill="white"></path><path d="M182.5 8.53278H187.603V15.8115C186.574 16.5164 185.379 17.0574 184.019 17.4344C182.658 17.8115 181.322 18 180.011 18C178.152 18 176.484 17.623 175.007 16.8689C173.53 16.0984 172.369 15.0328 171.522 13.6721C170.693 12.2951 170.278 10.7377 170.278 9C170.278 7.2623 170.693 5.71311 171.522 4.35246C172.369 2.97541 173.539 1.90984 175.032 1.15574C176.542 0.385246 178.243 0 180.135 0C181.845 0 183.371 0.286885 184.716 0.860655C186.076 1.41803 187.205 2.23771 188.101 3.31967L184.342 6.59016C183.247 5.32787 181.944 4.69672 180.434 4.69672C179.14 4.69672 178.111 5.08197 177.347 5.85246C176.584 6.62295 176.202 7.67213 176.202 9C176.202 10.2951 176.576 11.3361 177.322 12.123C178.086 12.9098 179.098 13.3033 180.359 13.3033C181.106 13.3033 181.82 13.1639 182.5 12.8852V8.53278Z" fill="white"></path><path d="M192.714 17.8525C191.768 17.8525 190.98 17.5574 190.349 16.9672C189.735 16.3607 189.428 15.5902 189.428 14.6557C189.428 13.7213 189.735 12.9672 190.349 12.3934C190.98 11.8033 191.768 11.5082 192.714 11.5082C193.66 11.5082 194.44 11.8033 195.054 12.3934C195.685 12.9672 196 13.7213 196 14.6557C196 15.5902 195.685 16.3607 195.054 16.9672C194.44 17.5574 193.66 17.8525 192.714 17.8525Z" fill="white"></path></svg>